<svg width="406" height="306" viewBox="0 0 406 306" fill="none" xmlns="http://www.w3.org/2000/svg">
<path d="M21.65 169.362L180.213 79.1182C184.084 76.9161 188.465 75.7692 192.918 75.7923C197.372 75.8155 201.741 77.0079 205.588 79.2501L369.003 174.406C371.148 175.653 372.926 177.441 374.16 179.593C375.394 181.744 376.039 184.183 376.032 186.663C376.025 189.143 375.365 191.577 374.119 193.722C372.872 195.866 371.084 197.644 368.932 198.878L216.429 286.442C211.262 289.412 205.407 290.975 199.448 290.975C193.488 290.975 187.633 289.412 182.467 286.442L21.5993 193.894C19.4397 192.654 17.6463 190.865 16.4009 188.708C15.1554 186.551 14.5022 184.104 14.5074 181.613C14.5125 179.123 15.1759 176.678 16.4302 174.527C17.6846 172.375 19.4853 170.593 21.65 169.362Z" fill="#297600"/>
<path opacity="0.32" d="M146.698 261.229L155.173 255.495L216.581 204.745L202.046 198.502C193.327 200.837 177.686 207.637 169.566 211.342C157.579 216.864 145.44 221.868 133.158 226.699C126.358 229.406 119.547 232.072 112.726 234.697C124.947 242.381 135.909 251.688 146.698 261.229Z" fill="url(#paint0_linear_324:13116)"/>
<path d="M208.755 211.535L196.484 206.115V112.4L212.602 106.645" fill="#7F1D18"/>
<path d="M216.438 94.465V204.765L208.755 211.535V105.295" fill="#AA3529"/>
<path d="M143.612 117.404V76.5908C143.612 76.5908 142.536 69.3437 155.427 62.8985C168.317 56.4532 211.008 31.4842 211.008 31.4842C211.008 31.4842 231.948 27.7287 243.224 58.331C245.2 63.4809 246.463 68.8764 246.98 74.368V106.391L184.953 140.759L143.612 117.404Z" fill="#1045FF"/>
<path d="M146.008 114.43V76.0529C146.008 76.0529 147.348 65.3141 158.36 69.0696C169.373 72.8251 180.914 87.5934 183.329 101.286V135.918L147.348 114.978" fill="#E98669"/>
<path d="M145.429 118.094L121.262 147.357C121.262 147.357 110.25 164.277 128.245 173.939C146.241 183.602 163.151 163.465 163.151 163.465L183.827 139.805L145.429 118.094Z" fill="#1045FF"/>
<path d="M143.318 117.404L119.151 146.666C119.151 146.666 108.138 163.586 126.134 173.249C144.13 182.912 161.04 162.774 161.04 162.774L181.685 139.155L143.318 117.404Z" fill="#AA3529"/>
<path d="M180.081 91.288C175.148 82.224 165.922 71.5056 158.36 68.958C147.348 65.1619 146.008 75.86 146.008 75.86V114.43C163.517 102.402 161.446 104.463 180.081 91.288Z" fill="#CD725F"/>
<path d="M232.145 104.497C236.361 95.9512 234.249 86.2947 227.427 82.9291C220.605 79.5634 211.657 83.7631 207.441 92.3092C203.224 100.855 205.336 110.512 212.158 113.877C218.98 117.243 227.928 113.043 232.145 104.497Z" fill="white"/>
<path d="M236.901 67.8007C237.489 67.5094 237.729 66.7969 237.438 66.2092C237.146 65.6216 236.434 65.3814 235.846 65.6727L193.842 86.4965C193.254 86.7878 193.014 87.5003 193.305 88.088C193.597 88.6756 194.309 88.9158 194.897 88.6245L236.901 67.8007Z" fill="#AA3529"/>
<path d="M237.977 67.2629C237.977 67.2629 246.655 81.0771 246.98 82.1428C247.305 83.2086 223.432 74.4796 223.432 74.4796" fill="#AA3529"/>
<path d="M173.565 80.2956C169.505 83.3406 164.075 81.9703 159.446 81.3106C157.517 81.137 155.612 80.7593 153.762 80.1839C155.547 79.6714 157.223 78.8354 158.706 77.7175C161.234 79.0493 164.072 79.6834 166.927 79.5546C168.815 80.0376 170.794 80.0376 172.682 79.5546C172.817 79.5183 172.931 79.43 173.001 79.3091C173.07 79.1882 173.089 79.0447 173.053 78.9101C173.016 78.7755 172.928 78.6609 172.807 78.5914C172.686 78.5219 172.543 78.5033 172.408 78.5396C171.305 78.8233 170.164 78.9261 169.028 78.8441C169.008 78.7087 168.937 78.586 168.829 78.5011C168.722 78.4162 168.586 78.3756 168.45 78.3874C168.371 78.3373 168.279 78.3125 168.186 78.3163C165.891 78.3985 163.615 77.8733 161.588 76.7938C163.192 76.4861 164.679 75.7375 165.882 74.6319C166.359 74.1853 165.638 73.4748 165.161 73.9112C163.934 75.0458 162.376 75.7572 160.715 75.9412C161.868 74.6808 162.807 73.2409 163.496 71.6782C163.76 71.0895 162.887 70.5719 162.623 71.1707C161.9 72.8026 160.889 74.2913 159.639 75.5657C157.568 73.9149 156.052 71.6691 155.295 69.1306C155.102 68.5114 154.128 68.7753 154.28 69.4046C155.077 71.9907 156.603 74.292 158.675 76.0326H157.731C154.87 74.1841 152.251 71.9848 149.936 69.4858C149.479 69.0189 148.758 69.7396 149.215 70.2065C151.218 72.328 153.416 74.2549 155.782 75.9615C152.555 75.7179 149.388 74.6826 147.997 71.4752C147.733 70.8764 146.86 71.394 147.124 71.9827C148.606 75.4033 152.078 76.6923 155.589 76.9562C156.239 76.9562 156.889 77.0374 157.528 77.0577L157.731 77.1795C156.116 78.3316 154.276 79.1304 152.331 79.5242C150.301 78.4381 148.373 77.0983 146.424 75.8905C145.866 75.5454 145.358 76.4284 145.916 76.7634C147.449 77.7073 148.962 78.7934 150.586 79.7576C149.162 79.8698 147.73 79.7775 146.333 79.4836C145.693 79.3516 145.419 80.326 146.059 80.4986C148.043 80.9192 150.089 80.9571 152.088 80.6102C152.534 80.8335 152.991 81.0467 153.458 81.2294C155.803 82.1327 158.533 82.2444 160.999 82.5793C165.425 83.2086 170.246 84.0206 174.093 81.2091C174.631 80.7929 174.123 79.92 173.565 80.2956Z" fill="white"/>
<path d="M184.578 123.484C181.828 124.114 179.046 124.595 176.244 124.925C177.185 123.524 178.092 122.107 178.965 120.672C180.769 119.737 182.47 118.614 184.04 117.323C184.547 116.907 183.826 116.196 183.319 116.602C182.25 117.474 181.116 118.265 179.929 118.967C181.546 116.179 183.041 113.324 184.415 110.4C184.689 109.812 183.816 109.294 183.542 109.893C181.939 113.326 180.156 116.674 178.203 119.921C172.953 122.552 166.998 123.43 161.212 122.428C160.573 122.317 160.299 123.291 160.938 123.443C166.44 124.407 172.104 123.736 177.229 121.515C176.468 122.743 175.666 123.941 174.854 125.138C171.88 125.493 168.906 125.798 165.993 126.204C165.353 126.295 165.627 127.27 166.267 127.219C168.835 126.854 171.464 126.58 174.082 126.275C173.331 127.351 172.58 128.417 171.789 129.462C171.393 129.98 172.276 130.477 172.661 129.97C173.616 128.701 174.539 127.412 175.443 126.102C178.589 125.756 181.714 125.23 184.801 124.529C185.481 124.306 185.217 123.332 184.578 123.484Z" fill="white"/>
<path d="M249.192 169.128C251.709 168.245 254.158 167.18 256.521 165.941C258.544 165.032 260.411 163.809 262.053 162.318C262.053 162.257 262.053 162.196 261.992 162.135C257.109 163.992 251.537 161.272 246.442 161.506C243.072 161.658 239.337 162.521 236.688 164.703C235.737 165.557 234.88 166.51 234.13 167.545C238.911 169.879 243.762 170.864 249.192 169.128Z" fill="#F9B246"/>
<path d="M99.6324 156.674C99.1965 158.276 98.8777 159.908 98.6783 161.556C98.4306 162.917 98.3998 164.308 98.5869 165.677H98.6986C99.47 162.521 102.84 160.602 104.515 157.923C105.744 156.134 106.376 154.002 106.321 151.833C106.221 151.044 106.037 150.268 105.773 149.519C104.32 150.236 103.027 151.24 101.972 152.47C100.917 153.699 100.121 155.129 99.6324 156.674Z" fill="#E98669"/>
<path d="M206.836 238.067C204.946 239.404 203.155 240.876 201.477 242.472C200.008 243.714 198.744 245.18 197.732 246.816L197.823 246.959C201.457 244.248 206.755 245.192 210.947 243.782C213.728 242.848 216.621 241.264 218.316 238.788C218.907 237.851 219.397 236.854 219.778 235.814C215.241 234.982 210.957 235.327 206.836 238.067Z" fill="#7DC156"/>
<path d="M111.802 196.239C110.28 193.661 108.554 191.083 105.58 190.098C101.815 188.84 98.1099 190.677 94.8213 192.412C95.278 194.442 97.2674 196.077 98.7392 197.284C100.766 199.01 103.068 200.383 105.55 201.344C109.493 202.776 113.684 203.397 117.872 203.171C115.253 201.882 113.244 198.675 111.802 196.239Z" fill="#C95C43"/>
<path opacity="0.48" d="M296.847 202.004C298.034 201.801 298.998 201.832 299.455 202.37C298.623 210.591 304.53 206.572 307.129 208.652L309.362 207.719C313.868 203.205 318.399 198.722 322.952 194.27C321.389 193.143 319.907 191.946 318.365 190.768C310.888 193.901 303.69 197.66 296.847 202.004Z" fill="url(#paint1_linear_324:13116)"/>
<path d="M323.582 194.351V153.832H314.762V194.706C317.817 195.63 321.024 195.731 323.582 194.351Z" fill="#A83F1E"/>
<path d="M320.07 153.944V195.447C321.299 195.356 322.495 195.011 323.582 194.432V153.944H320.07Z" fill="#7F2B14"/>
<path d="M331.448 157.618C336.939 157.354 343.963 155.385 341.903 149.265C340.685 145.651 336.949 142.464 334.554 139.602C332.159 136.74 332.697 134.821 330.027 132.01C332.301 132.101 335.599 131.675 336.117 129.421C336.604 127.452 325.967 115.354 321.41 110.451C320.906 109.909 320.216 109.578 319.478 109.523C318.74 109.469 318.009 109.695 317.431 110.157C311.97 114.511 298.014 126.082 299.963 129.442C301.14 131.472 303.515 132.152 305.637 132.335C300.612 137.41 294.898 143.662 294.319 150.361C293.812 156.177 299.76 156.948 305.302 156.654C301.475 161.303 291.092 174.559 293.457 178.588C294.705 180.709 298.735 181.41 301.12 181.887C306.291 182.934 311.556 183.441 316.832 183.399C322.136 183.476 327.417 182.681 332.463 181.044C335.259 180.171 337.851 178.746 340.086 176.852C342.522 174.559 341.162 172.123 339.578 169.819C336.858 165.779 334.158 161.699 331.448 157.618Z" fill="#77C457"/>
<path d="M330.027 132.02C330.027 132.02 323.348 131.583 318.689 131.705L342.258 151.071C342.258 151.071 342.887 148.818 338.726 144.21C335.509 140.382 332.601 136.306 330.027 132.02Z" fill="#0D5B23"/>
<path d="M331.448 157.618H317.695L340.076 176.842C340.758 176.358 341.239 175.639 341.427 174.823C341.614 174.007 341.494 173.151 341.091 172.417C339.619 169.808 331.448 157.618 331.448 157.618Z" fill="#0D5B23"/>
<path opacity="0.48" d="M48.8823 192.372C49.6131 192.25 50.2018 192.27 50.486 192.595C49.9785 197.67 53.6021 195.173 55.1956 196.442L56.5659 195.874C59.3267 193.106 62.1044 190.355 64.899 187.622C63.9449 186.931 63.0111 186.201 62.0875 185.47C57.4992 187.394 53.0817 189.703 48.8823 192.372Z" fill="url(#paint2_linear_324:13116)"/>
<path d="M65.2744 187.672V162.825H59.8848V187.896C61.643 188.519 63.5738 188.439 65.2744 187.672Z" fill="#A83F1E"/>
<path d="M63.123 162.896V188.342C63.874 188.293 64.6066 188.089 65.2748 187.743V162.896H63.123Z" fill="#7F2B14"/>
<path d="M70.106 165.18C73.4656 165.018 77.7794 163.81 76.5208 160.105C75.7798 157.892 73.4758 155.933 72.0142 154.177C70.5526 152.421 70.8774 151.244 69.2331 149.529C70.6236 149.59 72.6537 149.326 72.9886 147.945C73.2931 146.737 66.7869 139.318 63.9754 136.313C63.6672 135.981 63.2449 135.778 62.7932 135.744C62.3415 135.71 61.8937 135.848 61.5394 136.131C58.1899 138.8 49.6334 145.895 50.821 147.945C51.2176 148.498 51.7405 148.947 52.3462 149.256C52.9518 149.565 53.6226 149.725 54.3024 149.722C51.2574 152.767 47.7151 156.664 47.3598 160.775C47.0553 164.338 50.6992 164.835 54.0893 164.632C51.7446 167.484 45.3704 175.614 46.8219 178.081C47.5933 179.38 50.0597 179.816 51.5213 180.111C54.6911 180.755 57.9192 181.068 61.1537 181.044C64.4049 181.092 67.6419 180.605 70.7353 179.603C72.4477 179.068 74.0353 178.195 75.4043 177.035C76.8963 175.624 76.0641 174.132 75.0897 172.721C73.4149 170.153 71.7604 167.646 70.106 165.18Z" fill="#77C457"/>
<path d="M69.233 149.448C69.233 149.448 65.173 149.184 62.2803 149.255L76.7339 161.12C76.7339 161.12 77.1196 159.74 74.5618 156.918C72.5915 154.572 70.8097 152.074 69.233 149.448Z" fill="#0D5B23"/>
<path d="M70.1059 165.18H61.7017L75.4245 176.974C75.8384 176.674 76.128 176.232 76.2384 175.733C76.3487 175.233 76.2722 174.711 76.0233 174.264C75.1098 172.62 70.1059 165.18 70.1059 165.18Z" fill="#0D5B23"/>
<path fill-rule="evenodd" clip-rule="evenodd" d="M215.359 107.025C219.352 106.65 222.903 103.555 225.116 99.9409C227.328 96.3265 227.364 93.5614 223.37 93.9359C219.377 94.3105 215.826 97.4055 213.613 101.02C211.401 104.634 211.366 107.4 215.359 107.025ZM217.328 103.809C219.381 103.616 221.208 102.024 222.345 100.166C223.483 98.3067 223.501 96.8846 221.448 97.0772C219.394 97.2699 217.568 98.8616 216.43 100.72C215.292 102.579 215.274 104.001 217.328 103.809Z" fill="#33B0FF"/>
<path fill-rule="evenodd" clip-rule="evenodd" d="M215.334 105.517C219.327 105.143 222.879 102.048 225.091 98.4332C227.303 94.8188 227.339 92.0536 223.346 92.4283C219.352 92.8028 215.801 95.8978 213.588 99.5122C211.376 103.127 211.341 105.892 215.334 105.517ZM217.303 102.301C219.356 102.108 221.183 100.517 222.321 98.6577C223.458 96.7988 223.477 95.3768 221.423 95.5694C219.369 95.7621 217.543 97.3538 216.405 99.2126C215.267 101.071 215.249 102.494 217.303 102.301Z" fill="#217DFF"/>
<path fill-rule="evenodd" clip-rule="evenodd" d="M215.309 104.008C219.302 103.633 222.854 100.538 225.066 96.9238C227.278 93.3093 227.314 90.5442 223.321 90.9187C219.328 91.2933 215.776 94.3883 213.564 98.0027C211.351 101.617 211.316 104.382 215.309 104.008ZM217.278 100.791C219.331 100.599 221.158 99.0069 222.296 97.1481C223.433 95.2892 223.452 93.8671 221.398 94.0598C219.344 94.2524 217.518 95.8441 216.38 97.703C215.242 99.5618 215.224 100.984 217.278 100.791Z" fill="#1045FF"/>
<defs>
<linearGradient id="paint0_linear_324:13116" x1="128.662" y1="253.617" x2="189.572" y2="196.31" gradientUnits="userSpaceOnUse">
<stop stop-opacity="0"/>
<stop offset="0.99" stop-color="#552800"/>
</linearGradient>
<linearGradient id="paint1_linear_324:13116" x1="290.472" y1="220.68" x2="312.021" y2="195.681" gradientUnits="userSpaceOnUse">
<stop stop-color="#297600"/>
<stop offset="0.99" stop-color="#294900"/>
</linearGradient>
<linearGradient id="paint2_linear_324:13116" x1="758.582" y1="2380.67" x2="885.044" y2="2166.43" gradientUnits="userSpaceOnUse">
<stop stop-color="#297600"/>
<stop offset="0.99" stop-color="#294900"/>
</linearGradient>
</defs>
</svg>
