<svg width="406" height="306" viewBox="0 0 406 306" fill="none" xmlns="http://www.w3.org/2000/svg">
<path d="M197.651 297.13L29.4353 197.66C24.0761 194.615 19.4883 189.712 24.7054 186.495L193.53 89.1564C196.068 87.5832 199.915 86.558 202.483 88.0501L379.093 190.565C384.452 193.671 385.406 202.37 380.047 205.475L219.829 296.937C216.469 298.898 212.656 299.948 208.766 299.982C204.876 300.015 201.044 299.032 197.651 297.13Z" fill="#A6BFDB"/>
<path opacity="0.48" d="M71.618 182.942L35.8291 200.319C41.0934 203.838 46.6527 206.895 52.4447 209.454L88.9034 185.145" fill="url(#paint0_linear_290:11631)"/>
<path opacity="0.48" d="M234.222 181.217C224.823 175.269 215.434 169.26 206.685 162.409L157.681 190.484L208.431 230.069C214.257 226.385 244.727 211.119 262.307 201.771V199.741C252.949 193.6 243.712 187.216 234.222 181.217Z" fill="url(#paint1_linear_290:11631)"/>
<path d="M216.804 96.7285C216.724 96.3355 216.557 95.9652 216.317 95.6441C216.077 95.323 215.768 95.059 215.414 94.8711C215.092 94.6935 214.715 94.6461 214.36 94.7387C214.005 94.8312 213.699 95.0567 213.505 95.3684C213.347 95.6816 213.297 96.0387 213.363 96.3834C213.249 96.8832 213.262 97.4039 213.402 97.8972C213.542 98.3905 213.805 98.8404 214.165 99.2051C214.297 99.3414 214.454 99.4498 214.629 99.5238C214.803 99.5979 214.991 99.636 215.18 99.636C215.37 99.636 215.557 99.5979 215.732 99.5238C215.906 99.4498 216.064 99.3414 216.195 99.2051C216.482 98.8679 216.686 98.4685 216.792 98.0387C216.898 97.6088 216.902 97.1603 216.804 96.7285Z" fill="#5A2500"/>
<path d="M260.347 51.0736L207.212 19.6898C206.433 19.2916 205.582 19.0556 204.71 18.9963C203.837 18.937 202.962 19.0555 202.137 19.3447H202.056C201.666 19.4755 201.288 19.642 200.929 19.8421L195.895 22.0649L198.584 23.2525L200.239 159.262C200.238 161.658 200.866 164.011 202.059 166.088C203.252 168.164 204.97 169.892 207.039 171.097L256.581 199.964L255.81 204.613L262.529 201.06C263.18 200.704 263.723 200.178 264.1 199.538C264.477 198.898 264.674 198.169 264.671 197.426V58.6557C264.672 57.125 264.274 55.6205 263.515 54.2908C262.757 52.9611 261.665 51.8522 260.347 51.0736Z" fill="#1045FF"/>
<path opacity="0.33" d="M260.347 51.0736L207.212 19.6898C206.433 19.2916 205.582 19.0556 204.71 18.9963C203.837 18.937 202.962 19.0555 202.137 19.3447H202.056C201.666 19.4755 201.288 19.642 200.929 19.8421L195.895 22.0649L198.584 23.2525L200.239 159.262C200.238 161.658 200.866 164.011 202.059 166.088C203.252 168.164 204.97 169.892 207.039 171.097L256.581 199.964L255.81 204.613L262.529 201.06C263.18 200.704 263.723 200.178 264.1 199.538C264.477 198.898 264.674 198.169 264.671 197.426V58.6557C264.672 57.125 264.274 55.6205 263.515 54.2908C262.757 52.9611 261.665 51.8522 260.347 51.0736Z" fill="#3F3D56"/>
<path d="M251.984 204.389L200.615 174.457C198.545 173.252 196.828 171.524 195.635 169.447C194.442 167.371 193.814 165.017 193.814 162.622V25.3638C193.812 24.7208 193.98 24.0887 194.302 23.5321C194.624 22.9754 195.088 22.5141 195.646 22.1952C196.204 21.8763 196.837 21.7113 197.48 21.7169C198.123 21.7226 198.753 21.8988 199.306 22.2274L253.913 54.4841C255.231 55.2627 256.323 56.3716 257.081 57.7013C257.839 59.031 258.237 60.5355 258.237 62.0662V200.796C258.236 201.527 258.042 202.245 257.676 202.878C257.309 203.51 256.782 204.035 256.149 204.4C255.515 204.764 254.796 204.955 254.065 204.953C253.334 204.951 252.616 204.757 251.984 204.389Z" fill="#F4F4F4"/>
<path d="M254.978 70.4501L196.453 36.884V156.969L254.978 190.799V70.4501Z" fill="white"/>
<path d="M221.117 182.405C222.567 182.059 223.364 180.192 222.896 178.234C222.429 176.277 220.874 174.971 219.424 175.317C217.974 175.663 217.177 177.531 217.644 179.488C218.112 181.446 219.666 182.752 221.117 182.405Z" fill="#BABABC"/>
<path d="M218.083 42.6594C218.083 42.8902 218.144 43.117 218.26 43.3166C218.376 43.5162 218.542 43.6817 218.743 43.7962L230.05 50.2922C230.249 50.406 230.474 50.4655 230.704 50.4647C230.933 50.4639 231.158 50.403 231.357 50.2878C231.555 50.1727 231.72 50.0075 231.834 49.8088C231.949 49.6101 232.009 49.3848 232.009 49.1554V48.8814C232.009 48.6468 231.945 48.4166 231.826 48.2148C231.706 48.0131 231.534 47.8471 231.329 47.7344L220.022 41.5125C219.822 41.4032 219.598 41.3478 219.371 41.3515C219.144 41.3552 218.921 41.418 218.726 41.5338C218.53 41.6495 218.368 41.8141 218.255 42.0115C218.143 42.2089 218.083 42.4321 218.083 42.6594Z" fill="#CCCCCC"/>
<path d="M214.073 40.2988C214.737 40.0516 215.001 39.1165 214.664 38.2102C214.326 37.3038 213.515 36.7695 212.851 37.0167C212.187 37.2639 211.922 38.1991 212.259 39.1054C212.597 40.0117 213.409 40.5461 214.073 40.2988Z" fill="#CCCCCC"/>
<path d="M242.199 119.617C244.057 134.415 237.226 147.306 226.974 148.412C216.723 149.519 206.867 138.425 205.01 123.636C203.152 108.847 209.983 95.9468 220.235 94.8405C230.486 93.7341 240.342 104.828 242.199 119.617Z" fill="#F16063"/>
<path opacity="0.48" d="M321.512 208.348L285.723 225.725C290.987 229.244 296.546 232.3 302.338 234.86L338.797 210.55" fill="url(#paint2_linear_290:11631)"/>
<path d="M318.101 175.269C318.009 175.179 317.937 175.072 317.888 174.954C316.355 174.183 314.843 173.452 313.229 172.772C312.742 172.407 312.214 172.072 311.747 171.757C311.662 171.849 311.558 171.921 311.443 171.969C311.327 172.016 311.202 172.037 311.077 172.031C308.782 171.969 306.497 171.711 304.246 171.26C304.145 171.453 304.066 171.657 304.013 171.869C306.05 174.237 307.426 177.101 308.002 180.171C308.438 180.669 308.905 181.186 309.413 181.735C311.676 182.628 314.751 182.435 317.33 182.75C317.451 182.489 317.546 182.217 317.614 181.938H317.725C318.593 182.255 319.437 182.631 320.253 183.064C321.947 183.303 323.553 183.967 324.922 184.993C325.297 184.849 325.641 184.635 325.937 184.363C323.288 181.42 320.973 178.101 318.101 175.269Z" fill="#1B896C"/>
<path d="M331.205 177.726L337.559 172.722C337.559 172.722 346.136 170.001 346.014 160.795C345.892 151.589 343.141 149.123 343.141 149.123C343.141 149.123 332.454 165.18 331.205 177.726Z" fill="#1B896C"/>
<path d="M317.786 195.204L321.034 210.358C321.142 210.861 321.362 211.333 321.679 211.739C321.995 212.145 322.399 212.475 322.861 212.702C324.749 213.626 328.647 214.59 336.056 213.25C336.722 213.13 337.338 212.815 337.826 212.345C338.313 211.876 338.651 211.273 338.797 210.611L342.126 195.204" fill="#1045FF"/>
<path d="M329.956 200.187C336.677 200.187 342.126 197.956 342.126 195.204C342.126 192.451 336.677 190.22 329.956 190.22C323.235 190.22 317.786 192.451 317.786 195.204C317.786 197.956 323.235 200.187 329.956 200.187Z" fill="#56403D"/>
<path d="M346.694 157.689C346.41 154.025 343.994 150.747 344.359 147.052C344.431 146.362 343.487 146.25 343.162 146.727C336.849 156.005 332.758 166.612 331.205 177.725C331.129 177.861 331.103 178.02 331.134 178.172C330.47 183.13 330.317 188.144 330.677 193.133C331.104 193.095 331.528 193.027 331.946 192.93C331.606 188.034 331.766 183.117 332.423 178.253C334.585 175.685 337.65 174.467 340.259 172.427C342.476 170.704 344.221 168.448 345.334 165.87C346.442 163.293 346.909 160.486 346.694 157.689ZM344.085 165.353C342.718 168.424 340.43 170.995 337.539 172.711C336.331 173.473 335.133 174.193 334.017 175.015C336.341 170.47 338.349 165.77 340.025 160.948C340.299 160.166 339.01 159.831 338.787 160.602C337.213 165.158 335.338 169.603 333.174 173.909C334.923 165.093 338.307 156.683 343.152 149.113C343.466 151.193 344.451 153.071 344.999 155.203C345.825 158.594 345.504 162.163 344.085 165.353Z" fill="#37B596"/>
<path d="M330.057 193.163C329.042 190.545 328.027 187.896 326.85 185.368C326.866 185.251 326.849 185.131 326.803 185.022C326.757 184.914 326.682 184.819 326.586 184.749C325.092 181.628 323.065 178.791 320.598 176.365C315.746 171.767 309.433 170.651 302.998 169.91C302.348 169.839 302.226 170.62 302.602 170.996C302.62 171.074 302.654 171.147 302.701 171.211C302.748 171.276 302.807 171.33 302.876 171.371C306.692 173.736 305.576 179.755 309.615 181.978C311.513 182.993 313.817 182.709 315.888 182.79C318.636 182.824 321.345 183.444 323.835 184.607C326.009 187.003 327.521 189.924 328.22 193.082C328.829 193.162 329.444 193.189 330.057 193.163ZM312.457 175.675C311.676 175.391 311.341 176.629 312.112 176.913C315.518 178.126 318.677 179.942 321.44 182.273C320.772 182.083 320.095 181.93 319.41 181.816C316.72 181.379 312.589 182.222 310.214 180.801C306.895 178.872 307.169 174.163 304.804 171.351C310.58 172.123 316.071 173.503 320.324 177.878C321.855 179.482 323.185 181.268 324.282 183.196C320.982 179.8 316.932 177.225 312.457 175.675Z" fill="#37B596"/>
<path d="M54.3633 145.113V195.011C54.3637 195.762 54.5629 196.499 54.9406 197.148C55.3183 197.797 55.861 198.334 56.5137 198.705C57.1663 199.076 57.9056 199.268 58.6564 199.261C59.4072 199.254 60.1427 199.048 60.7882 198.665L134.832 154.583C135.457 154.201 135.972 153.663 136.327 153.023C136.683 152.383 136.867 151.662 136.862 150.929V100.108C136.861 99.3611 136.662 98.6276 136.287 97.9815C135.911 97.3355 135.372 96.7998 134.724 96.4283C134.076 96.0569 133.341 95.8627 132.594 95.8655C131.847 95.8683 131.113 96.0678 130.468 96.4441L57.9462 138.861C56.8549 139.499 55.9498 140.412 55.3212 141.509C54.6926 142.606 54.3623 143.849 54.3633 145.113Z" fill="#054F70"/>
<path d="M57.54 146.352V196.249C57.5443 196.996 57.7453 197.729 58.1226 198.373C58.5 199.018 59.0405 199.552 59.6898 199.921C60.339 200.291 61.0741 200.483 61.821 200.478C62.5679 200.473 63.3004 200.271 63.9447 199.893L138.04 155.812C138.664 155.429 139.179 154.891 139.535 154.251C139.89 153.611 140.075 152.89 140.07 152.158V101.347C140.068 100.6 139.869 99.8661 139.494 99.2201C139.119 98.5741 138.58 98.0383 137.931 97.6669C137.283 97.2954 136.548 97.1013 135.801 97.104C135.054 97.1068 134.321 97.3064 133.675 97.6826L61.1331 140.099C60.0399 140.737 59.1328 141.649 58.5024 142.746C57.8719 143.843 57.5401 145.087 57.54 146.352Z" fill="#1045FF"/>
<path d="M134.26 149.492C135.833 145.502 134.913 141.403 132.206 140.336C129.5 139.27 126.031 141.639 124.458 145.629C122.886 149.619 123.806 153.718 126.512 154.784C129.219 155.851 132.688 153.482 134.26 149.492Z" fill="#FBF472"/>
<path d="M126.745 153.692C128.317 149.702 127.397 145.603 124.691 144.537C121.984 143.47 118.515 145.839 116.943 149.829C115.37 153.819 116.29 157.918 118.997 158.985C121.703 160.051 125.172 157.682 126.745 153.692Z" fill="#E2347C"/>
<path d="M66.777 143.256C67.7108 142.728 68.3401 143.002 68.5431 144.007L67.8326 144.667C67.6499 144.099 67.2946 143.967 66.8176 144.261C66.4313 144.504 66.1272 144.858 65.9447 145.276C65.7051 145.798 65.5838 146.366 65.5894 146.941C65.5318 147.397 65.6517 147.859 65.9244 148.23C66.0484 148.328 66.2023 148.382 66.3608 148.382C66.5194 148.382 66.6733 148.328 66.7973 148.23C67.0679 148.044 67.2977 147.806 67.4723 147.528C67.6469 147.25 67.7626 146.94 67.8123 146.616L68.5228 146.453C68.4516 147.02 68.2552 147.563 67.948 148.044C67.6408 148.525 67.2304 148.932 66.7465 149.234C66.5391 149.387 66.2884 149.469 66.031 149.469C65.7735 149.469 65.5228 149.387 65.3154 149.234C65.0867 148.985 64.9162 148.689 64.8161 148.366C64.7161 148.043 64.689 147.702 64.7368 147.367C64.7283 146.488 64.9338 145.621 65.3357 144.839C65.6561 144.186 66.156 143.636 66.777 143.256Z" fill="white"/>
<path d="M71.2938 143.967L72.4611 145.895L71.578 146.403L70.4413 144.535L70.0251 144.768V147.286L69.2334 147.742V141.906L70.7863 141.023C71.6186 140.546 72.0856 140.942 72.0754 141.947C72.0906 142.697 71.8098 143.422 71.2938 143.967ZM70.7965 143.337C70.9607 143.243 71.0953 143.105 71.185 142.938C71.2747 142.771 71.3159 142.582 71.304 142.393C71.304 141.953 71.1382 141.828 70.8067 142.018L70.0352 142.454V143.774L70.8067 143.337" fill="white"/>
<path d="M75.689 138.232V139.237L73.8417 140.292L73.8315 141.51L75.3134 140.668V141.673L73.8315 142.515L73.8214 144.119L75.7296 143.033V144.037L73.0195 145.58L73.05 139.744L75.689 138.232Z" fill="white"/>
<path d="M77.8202 137.024C78.8352 136.456 79.8502 136.77 79.7893 138.81C79.8262 139.604 79.659 140.394 79.3036 141.105C78.9482 141.816 78.4165 142.424 77.7593 142.87L76.4297 143.632V137.795L77.8202 137.024ZM78.5104 141.084C78.8411 140.537 79.0067 139.906 78.9875 139.267C78.9875 138.536 78.8149 138.1 78.5206 137.998C78.3572 137.953 78.1857 137.945 78.0187 137.974C77.8518 138.004 77.6937 138.071 77.5563 138.171L77.262 138.344V142.18L77.5563 142.008C77.9655 141.788 78.3142 141.471 78.5713 141.084" fill="white"/>
<path d="M81.312 135.024L81.2816 140.861L80.5 141.317L80.5304 135.471L81.312 135.024Z" fill="white"/>
<path d="M85.1691 132.822L85.159 133.827L83.9714 134.507L83.9511 139.338L83.1594 139.795L83.1797 134.953L81.9922 135.633L82.0023 134.628L85.1691 132.822Z" fill="white"/>
<path d="M89.0362 130.548C89.97 130.021 90.5993 130.295 90.8023 131.299L90.0918 131.959C89.9091 131.391 89.5538 131.259 89.0768 131.553C88.6897 131.795 88.3853 132.149 88.2039 132.568C87.9616 133.089 87.8402 133.658 87.8486 134.233C87.7867 134.69 87.907 135.153 88.1836 135.522C88.306 135.62 88.4581 135.673 88.6149 135.673C88.7718 135.673 88.9239 135.62 89.0463 135.522C89.317 135.337 89.5467 135.098 89.7213 134.82C89.8959 134.543 90.0116 134.232 90.0613 133.908L90.7718 133.746C90.7006 134.312 90.5043 134.855 90.197 135.336C89.8898 135.817 89.4794 136.224 88.9956 136.527C88.7882 136.679 88.5374 136.761 88.28 136.761C88.0225 136.761 87.7718 136.679 87.5644 136.527C87.3357 136.278 87.1652 135.981 87.0652 135.658C86.9651 135.335 86.938 134.994 86.9859 134.659C86.9773 133.78 87.1828 132.913 87.5847 132.132C87.9079 131.476 88.4115 130.927 89.0362 130.548Z" fill="white"/>
<path d="M93.258 128.204L94.6688 133.218L93.8162 133.705L93.5016 132.507L92.1516 133.279L91.837 134.832L90.9844 135.319L92.4663 128.64L93.258 128.204ZM92.3648 132.152L93.2681 131.634L92.8215 129.868L92.3648 132.152Z" fill="white"/>
<path d="M97.2772 129.127L98.4546 131.066L97.5615 131.573L96.4246 129.706L96.0085 129.939V132.456L95.2168 132.903V127.067L96.7697 126.184C97.602 125.707 98.0689 126.103 98.0588 127.107C98.0729 127.857 97.7923 128.582 97.2772 129.127ZM96.7799 128.498C96.9441 128.404 97.0787 128.265 97.1684 128.098C97.2581 127.932 97.2993 127.743 97.2874 127.554C97.2874 127.114 97.1216 126.989 96.79 127.178L96.0186 127.615V128.934L96.79 128.498" fill="white"/>
<path d="M100.383 124.144C101.398 123.575 102.413 123.89 102.352 125.93C102.389 126.724 102.222 127.514 101.866 128.225C101.511 128.935 100.979 129.543 100.322 129.99L98.9824 130.751V124.915L100.383 124.144ZM101.073 128.204C101.404 127.657 101.57 127.026 101.55 126.387C101.55 125.656 101.378 125.22 101.083 125.118C100.92 125.072 100.749 125.064 100.582 125.094C100.415 125.124 100.257 125.191 100.119 125.291L99.8249 125.463V129.3L100.119 129.127C100.528 128.908 100.877 128.59 101.134 128.204" fill="white"/>
<path d="M66.3604 158.674V168.002C66.3608 168.394 66.464 168.779 66.6596 169.119C66.8553 169.458 67.1366 169.741 67.4754 169.938C67.8143 170.135 68.1989 170.24 68.591 170.242C68.983 170.244 69.3688 170.144 69.7099 169.951L82.7222 162.511C83.065 162.314 83.3498 162.03 83.5476 161.688C83.7455 161.345 83.8494 160.957 83.8488 160.562V151.041C83.8468 150.648 83.7415 150.262 83.5434 149.922C83.3452 149.582 83.0612 149.301 82.7199 149.105C82.3785 148.91 81.9918 148.808 81.5985 148.809C81.2052 148.81 80.8191 148.915 80.479 149.113L67.4667 156.745C67.1306 156.943 66.8518 157.225 66.6578 157.563C66.4638 157.901 66.3613 158.284 66.3604 158.674Z" fill="#D1D1F5"/>
<path d="M88.9949 150.808L89.2994 150.635L88.9137 156.461L88.2235 156.877L88.5077 152.503L87.7363 153.609L87.8074 152.472L88.9949 150.808Z" fill="white"/>
<path d="M91.1571 149.458L91.2484 149.397C91.9589 148.97 92.3345 149.397 92.2634 150.412C92.2191 150.955 92.0817 151.488 91.8574 151.985L90.8424 154.401L92.1822 153.589L92.1213 154.604L89.665 156.045V155.629L91.1977 152.127C91.387 151.742 91.5072 151.326 91.5529 150.899C91.5529 150.422 91.4413 150.229 91.1368 150.412C90.9892 150.539 90.8684 150.694 90.7813 150.868C90.6942 151.043 90.6425 151.232 90.6293 151.427L90.0101 151.63C90.0612 151.165 90.2063 150.717 90.4364 150.31C90.6089 149.975 90.8554 149.683 91.1571 149.458Z" fill="white"/>
<path d="M93.2783 148.25L95.4098 146.91V147.275L94.3948 149.681L94.5471 149.569C95.1358 149.214 95.4504 149.701 95.3794 150.736C95.3468 151.314 95.191 151.878 94.9226 152.391C94.728 152.792 94.4389 153.141 94.0802 153.406L93.9685 153.477C93.6234 153.69 93.3392 153.71 93.1261 153.538C93.0016 153.403 92.9088 153.241 92.8544 153.066C92.7999 152.89 92.7853 152.705 92.8114 152.523L93.4813 151.995C93.5321 152.513 93.7148 152.665 94.0396 152.472C94.2292 152.312 94.3825 152.113 94.4893 151.889C94.596 151.665 94.6538 151.421 94.6587 151.173C94.6587 150.513 94.4862 150.29 94.1208 150.513C94.0074 150.595 93.908 150.694 93.8264 150.808L93.593 150.381L94.4151 148.443L93.1971 149.163L93.2783 148.25Z" fill="white"/>
<path d="M98.2931 148.879L98.7194 148.625L98.6585 149.64L98.2322 149.894L98.1611 150.97L97.4811 151.366L97.5521 150.29L95.918 151.305V150.777L97.8059 145.601L98.5265 145.164L98.2931 148.879ZM97.613 149.285L97.7551 147.062L96.801 149.772L97.613 149.285Z" fill="white"/>
<path d="M103.002 146.057L103.428 145.804L103.367 146.819L102.941 147.072L102.87 148.158L102.18 148.564L102.251 147.478L100.606 148.493V147.965L102.494 142.789L103.215 142.353L103.002 146.057ZM102.312 146.473L102.454 144.251L101.5 146.91L102.301 146.423" fill="white"/>
<path d="M104.636 141.459L106.595 140.282L106.534 141.297L105.134 142.129L104.961 143.398C105.095 143.206 105.259 143.038 105.448 142.901H105.519C106.291 142.444 106.636 142.901 106.534 144.139C106.499 144.715 106.347 145.278 106.088 145.793C105.896 146.197 105.607 146.546 105.245 146.808L105.144 146.879C105.032 146.97 104.897 147.025 104.754 147.037C104.611 147.05 104.468 147.02 104.342 146.951C104.227 146.826 104.139 146.678 104.087 146.517C104.034 146.356 104.017 146.185 104.038 146.017L104.697 145.448C104.697 145.946 104.91 146.098 105.215 145.915H105.266C105.456 145.749 105.606 145.543 105.707 145.311C105.807 145.079 105.854 144.828 105.844 144.575C105.844 143.916 105.702 143.703 105.306 143.936H105.245C104.958 144.171 104.734 144.475 104.596 144.819L104.17 144.941L104.636 141.459Z" fill="white"/>
<path d="M109.478 141.084C109.599 141.246 109.685 141.432 109.73 141.63C109.776 141.827 109.78 142.032 109.742 142.231C109.701 142.781 109.545 143.317 109.285 143.804C109.088 144.204 108.799 144.552 108.442 144.819L108.341 144.89C107.986 145.103 107.691 145.103 107.468 144.89C107.343 144.732 107.253 144.548 107.206 144.352C107.158 144.156 107.154 143.951 107.194 143.753C107.225 143.364 107.31 142.982 107.448 142.617L108.757 138.912L109.518 138.455L108.503 141.114H108.585C108.991 140.82 109.265 140.82 109.478 141.084ZM109.051 142.647C109.051 142.068 108.869 141.855 108.524 142.068H108.473C108.29 142.222 108.142 142.413 108.038 142.628C107.935 142.843 107.879 143.078 107.874 143.317C107.874 143.875 108.067 144.098 108.402 143.895C108.586 143.74 108.735 143.547 108.84 143.331C108.944 143.114 109.003 142.878 109.011 142.637" fill="white"/>
<path d="M110.442 137.978L112.746 136.598L112.715 137.034L110.929 143.297L110.249 143.693L111.873 138.059L110.371 138.942L110.442 137.978Z" fill="white"/>
<path d="M116.4 136.993C116.725 137.085 116.857 137.45 116.816 138.09C116.788 138.628 116.635 139.153 116.37 139.622C116.179 139.998 115.905 140.324 115.568 140.576L115.456 140.647C115.333 140.74 115.184 140.79 115.03 140.79C114.876 140.79 114.727 140.74 114.604 140.647C114.478 140.498 114.388 140.321 114.34 140.131C114.293 139.941 114.289 139.743 114.33 139.551C114.36 138.941 114.564 138.353 114.918 137.856C114.695 137.714 114.604 137.399 114.644 136.902C114.677 136.444 114.805 135.998 115.02 135.593C115.191 135.242 115.446 134.939 115.761 134.71L115.842 134.659C116.167 134.476 116.421 134.466 116.593 134.659C116.698 134.79 116.773 134.943 116.813 135.105C116.853 135.268 116.858 135.438 116.827 135.603C116.799 136.094 116.653 136.571 116.4 136.993ZM116.126 138.506C116.144 138.416 116.142 138.323 116.121 138.234C116.1 138.145 116.06 138.061 116.004 137.988C115.913 137.907 115.781 137.897 115.629 137.988C115.471 138.102 115.342 138.251 115.253 138.425C115.139 138.645 115.073 138.887 115.061 139.135C115.041 139.226 115.041 139.32 115.06 139.411C115.079 139.502 115.117 139.588 115.172 139.663C115.264 139.744 115.395 139.744 115.558 139.663H115.609C115.762 139.551 115.887 139.405 115.974 139.237C116.086 139.019 116.152 138.781 116.167 138.536L116.126 138.506ZM116.238 136.039C116.238 135.603 116.106 135.42 115.822 135.593C115.674 135.717 115.556 135.873 115.476 136.048C115.395 136.224 115.354 136.415 115.355 136.608C115.355 137.054 115.487 137.247 115.761 137.085C115.908 136.959 116.027 136.804 116.109 136.629C116.191 136.454 116.235 136.263 116.238 136.07" fill="white"/>
<path d="M119.77 132.852C119.894 133.011 119.983 133.195 120.03 133.391C120.077 133.587 120.082 133.791 120.045 133.989C120.018 134.379 119.932 134.762 119.791 135.126L118.492 138.79L117.72 139.257L118.735 136.598H118.654C118.299 136.811 118.015 136.811 117.801 136.598C117.682 136.43 117.597 136.241 117.552 136.041C117.506 135.84 117.502 135.633 117.537 135.43C117.575 134.876 117.731 134.336 117.994 133.847C118.19 133.446 118.479 133.098 118.837 132.832L118.938 132.761C119.067 132.679 119.219 132.644 119.37 132.66C119.522 132.677 119.663 132.745 119.77 132.852ZM119.364 134.395C119.364 133.837 119.172 133.613 118.837 133.816C118.655 133.973 118.508 134.166 118.405 134.383C118.302 134.6 118.245 134.835 118.238 135.075C118.238 135.654 118.421 135.867 118.766 135.654H118.816C119 135.501 119.149 135.311 119.253 135.095C119.356 134.88 119.412 134.644 119.415 134.405" fill="white"/>
<path d="M120.694 131.847L122.998 130.467L122.967 130.893L121.181 137.146L120.501 137.552L122.125 131.908L120.623 132.812L120.694 131.847Z" fill="white"/>
<path d="M125.597 129.361C125.723 129.518 125.814 129.702 125.863 129.898C125.912 130.094 125.918 130.299 125.881 130.497C125.851 130.886 125.766 131.269 125.627 131.634L124.318 135.339L123.556 135.796L124.571 133.136H124.49C124.135 133.36 123.851 133.36 123.638 133.136C123.517 132.97 123.431 132.78 123.386 132.58C123.341 132.379 123.337 132.171 123.374 131.969C123.413 131.415 123.569 130.876 123.83 130.386C124.026 129.985 124.315 129.637 124.673 129.371L124.785 129.3C125.089 129.137 125.383 129.147 125.597 129.361ZM125.191 130.913C125.191 130.355 124.998 130.132 124.663 130.335C124.482 130.49 124.336 130.682 124.233 130.896C124.129 131.111 124.072 131.345 124.064 131.583C124.064 132.152 124.247 132.365 124.592 132.162H124.642C124.825 132.009 124.974 131.818 125.077 131.602C125.18 131.387 125.236 131.152 125.241 130.913" fill="white"/>
<path d="M79.7893 174.061L78.7134 177.36L79.8299 179.603L79.0382 180.151L78.2972 178.639L77.4548 181.247L76.6631 181.785L77.942 177.898L76.9879 175.99L77.7593 175.462L78.348 176.629L79.0179 174.589L79.7893 174.061Z" fill="white"/>
<path d="M76.551 176.294L75.4751 179.603L76.5916 181.846L75.7999 182.384L75.059 180.882L74.2165 183.48L73.4248 184.029L74.7037 180.131L73.7496 178.233L74.521 177.695L75.1097 178.862L75.7695 176.832L76.551 176.294Z" fill="white"/>
<path d="M83.0266 171.818L81.9507 175.127L83.0672 177.36L82.2856 177.908L81.5447 176.406L80.7022 179.004L79.9004 179.552L81.1793 175.655L80.2252 173.757L81.0067 173.219L81.5954 174.386L82.2552 172.356L83.0266 171.818Z" fill="white"/>
<path d="M87.6252 168.641L86.5493 171.95L87.6658 174.193L86.8741 174.731L86.1332 173.229L85.2907 175.827L84.499 176.375L85.7678 172.488L84.8238 170.58L85.5952 170.042L86.1839 171.209L86.8437 169.179L87.6252 168.641Z" fill="white"/>
<path d="M90.8631 166.408L89.7872 169.707L90.9037 171.95L90.112 172.498L89.3711 170.986L88.5286 173.594L87.7471 174.132L89.0158 170.245L88.0617 168.337L88.8433 167.809L89.4218 168.976L90.0816 166.946L90.8631 166.408Z" fill="white"/>
<path d="M94.1004 164.165L93.0245 167.474L94.141 169.717L93.3493 170.255L92.6084 168.753L91.7659 171.351L90.9844 171.899L92.2531 168.002L91.299 166.104L92.0806 165.566L92.6591 166.733L93.329 164.703L94.1004 164.165Z" fill="white"/>
<path d="M173.565 96.0484C174.193 94.3683 174.735 92.6576 175.189 90.9227C175.392 89.6945 174.174 85.0255 175.027 84.7616C175.88 84.4977 176.945 87.6645 176.945 87.6645C176.945 87.6645 179.483 81.9399 180.173 81.6659C180.863 81.3918 182.924 81.2091 183.421 81.7268C183.918 82.2444 185.289 85.5838 184.68 86.7206C183.362 88.7474 181.932 90.6992 180.396 92.567C180.173 92.7395 177.504 98.4844 177.148 98.657C176.793 98.8295 173.85 97.3375 173.565 96.0484Z" fill="#FFC9B5"/>
<path d="M145.744 114.572C145.744 114.572 159.69 109.061 162.116 107.061C164.542 105.062 173.281 94.7593 173.281 94.7593C173.281 94.7593 178.356 96.6167 178.295 99.1644C178.295 99.1644 171.19 111.03 167.891 114.207C164.593 117.384 152.555 125.372 149.916 125.189C147.277 125.006 145.744 114.572 145.744 114.572Z" fill="#C93535"/>
<path d="M154.646 227.45C154.646 227.45 157.975 224.608 161.751 225.704C165.526 226.801 164.714 229.602 162.36 231.358C160.005 233.114 150.941 239.214 148.15 239.153C145.358 239.092 144.749 236.849 144.688 235.306C144.843 232.926 145.118 230.554 145.511 228.201" fill="#2C1D1A"/>
<path d="M152.564 227.247C152.578 227.351 152.615 227.451 152.672 227.539C152.729 227.628 152.805 227.702 152.894 227.757C152.984 227.813 153.084 227.848 153.188 227.859C153.293 227.871 153.399 227.86 153.498 227.826C154.511 227.505 155.504 227.126 156.472 226.689C156.472 226.689 159.689 226.689 157.731 229.907C155.772 233.124 149.022 234.068 146.941 232.87C144.86 231.673 146.251 228.262 146.251 228.262" fill="#2C1D1A"/>
<path d="M162.482 233.723C162.482 233.723 165.811 230.881 169.587 231.977C173.362 233.073 172.55 235.875 170.196 237.631C167.841 239.387 158.777 245.487 155.986 245.426C153.194 245.365 152.585 243.122 152.524 241.579C152.679 239.198 152.954 236.827 153.347 234.474" fill="#2C1D1A"/>
<path d="M160.37 233.53C160.384 233.634 160.421 233.734 160.478 233.822C160.535 233.911 160.611 233.985 160.7 234.04C160.789 234.096 160.89 234.13 160.994 234.142C161.099 234.154 161.204 234.143 161.304 234.109C162.316 233.788 163.309 233.408 164.278 232.972C164.278 232.972 167.495 232.972 165.536 236.189C163.577 239.407 156.828 240.351 154.747 239.153C152.666 237.956 154.057 234.545 154.057 234.545" fill="#FFC9B5"/>
<path d="M163.902 145.966C164.988 148.422 165.577 183.592 165.161 192.656C164.745 201.72 160.37 233.53 160.37 233.53C160.37 233.53 157.903 237.275 153.742 237.011C149.58 236.748 150.392 233.398 150.392 233.398C150.392 233.398 145.074 235.865 142.75 230.444C141.887 228.414 137.837 172.376 137.837 165.992C137.976 158.363 140.073 150.897 143.927 144.312" fill="#2C1D1A"/>
<path d="M150.423 233.388C150.423 233.388 147.896 162.338 148.22 160.237C148.545 158.136 147.53 175.817 147.601 180.649C147.642 184.1 149.743 228.557 150.423 233.388Z" fill="#6D5854"/>
<path d="M163.902 145.966C163.902 145.966 167.576 120.804 162.349 116.054C157.122 111.304 142.597 107.934 139.887 110.299C137.177 112.664 141.247 139.348 143.947 144.301C146.647 149.255 161.974 147.925 163.902 145.966Z" fill="#EA5353"/>
<path d="M157.325 97.5506C157.446 97.9058 160.024 107.701 155.528 109.122C151.032 110.543 150.128 105.173 149.682 104.869C149.235 104.564 147.824 104.087 147.895 103.001C147.966 101.915 149.671 101.895 149.671 101.895C149.671 101.895 150.331 99.0528 152.351 97.8348C154.371 96.6168 157.325 97.5506 157.325 97.5506Z" fill="#FFC9B5"/>
<path d="M153.092 100.311C153.092 100.311 156.848 100.372 158.472 98.7686C158.776 98.4552 159.011 98.0821 159.164 97.6729C159.316 97.2637 159.382 96.8274 159.358 96.3914C159.333 95.9555 159.218 95.5294 159.02 95.1402C158.822 94.7509 158.545 94.407 158.208 94.1301C158.208 94.1301 159.7 91.1561 156.899 90.4355C156.899 90.4355 156.645 87.7051 151.062 88.9536C145.48 90.202 140.374 94.1301 140.303 99.2051C140.232 104.28 139.857 104.899 138.05 106.066C136.243 107.234 136.741 111.71 141.572 111.893C146.403 112.075 152.991 111.649 153.61 109.264C154.229 106.878 150.565 106.625 150.108 104.189C149.996 103.28 150.246 102.363 150.804 101.637C151.363 100.912 152.185 100.435 153.092 100.311Z" fill="#2C1D1A"/>
<path d="M171.16 142.343C171.16 142.343 175.027 146.463 176.143 146.91C177.853 147.692 179.496 148.612 181.056 149.661C180.538 150.125 180.078 150.649 179.686 151.224C179.684 151.244 179.684 151.264 179.686 151.285C179.188 150.929 178.843 150.666 178.853 150.848C178.853 151.427 182.66 156.38 183.238 157.131C183.817 157.882 182.223 160.338 182.223 160.338C179.767 161.161 176.935 158.674 175.118 156.989C173.301 155.304 172.459 151.406 171.83 150.899C171.2 150.391 166.014 146.971 165.648 145.905C165.283 144.839 171.16 142.343 171.16 142.343Z" fill="#FFC9B5"/>
<path d="M163.547 117.85C164.561 120.094 164.561 122.55 164.988 124.955C165.323 126.671 165.668 128.467 166.064 130.203C166.334 131.972 166.889 133.686 167.708 135.278C169.129 137.643 170.976 139.693 172.59 141.916C173.039 142.399 173.363 142.985 173.534 143.621C173.686 145.174 171.727 149.6 166.297 149.052C163.553 146.834 160.987 144.404 158.624 141.784C155.579 138.201 152.696 126.082 152.99 122.053C153.193 119.312 154.686 116.247 157.284 115.049C158.146 114.698 159.094 114.62 160.002 114.825C160.909 115.03 161.732 115.509 162.359 116.196C162.845 116.677 163.246 117.236 163.547 117.85Z" fill="#EA5353"/>
<path d="M163.242 146.392C163.242 146.392 158.705 142.535 157.588 140.211C156.472 137.887 155.021 133.705 155.021 133.705C155.021 133.705 157.122 145.793 159.131 147.407C160.53 147.195 161.905 146.855 163.242 146.392Z" fill="#2C1D1A"/>
<path d="M225.106 132.176L219.919 129.785L218.667 114.312L218.759 103.113L226.642 106.747L226.55 117.946L225.106 132.176ZM226.76 142.101C226.75 143.408 226.317 144.332 225.461 144.875C224.606 145.417 223.585 145.415 222.399 144.868C221.212 144.321 220.199 143.385 219.359 142.061C218.519 140.737 218.104 139.422 218.115 138.115C218.126 136.809 218.559 135.884 219.414 135.341C220.269 134.799 221.29 134.801 222.477 135.348C223.663 135.895 224.677 136.831 225.517 138.155C226.357 139.479 226.771 140.794 226.76 142.101Z" fill="white"/>
<defs>
<linearGradient id="paint0_linear_290:11631" x1="47.3291" y1="203.872" x2="80.4282" y2="179.42" gradientUnits="userSpaceOnUse">
<stop offset="0.01" stop-color="#2E3192" stop-opacity="0"/>
<stop offset="1" stop-color="#666666"/>
</linearGradient>
<linearGradient id="paint1_linear_290:11631" x1="20689.5" y1="14205.2" x2="22399.8" y2="10471.3" gradientUnits="userSpaceOnUse">
<stop offset="0.01" stop-color="#2E3192" stop-opacity="0"/>
<stop offset="1" stop-color="#666666"/>
</linearGradient>
<linearGradient id="paint2_linear_290:11631" x1="15827.5" y1="6177.48" x2="16666.9" y2="4936.09" gradientUnits="userSpaceOnUse">
<stop offset="0.01" stop-color="#2E3192" stop-opacity="0"/>
<stop offset="1" stop-color="#666666"/>
</linearGradient>
</defs>
</svg>
