<svg width="406" height="200" viewBox="0 0 406 306" fill="none" xmlns="http://www.w3.org/2000/svg">
<path d="M197.194 296.115L14.7784 188.281C8.97262 185.023 3.98897 179.664 9.65267 176.162L192.728 70.6023C195.479 68.8971 199.651 67.7806 202.442 69.4046L393.932 180.588C399.737 183.957 400.783 193.377 394.947 196.757L221.27 295.922C217.621 298.047 213.48 299.182 209.258 299.216C205.035 299.25 200.877 298.181 197.194 296.115Z" fill="#1045FF"/>
<path d="M374.139 167.484L271.736 227.247L156.878 162.571L258.632 103.153L374.139 167.484Z" fill="#1045FF"/>
<path d="M212.338 227.237C242.962 227.237 267.787 212.763 267.787 194.909C267.787 177.055 242.962 162.582 212.338 162.582C181.714 162.582 156.889 177.055 156.889 194.909C156.889 212.763 181.714 227.237 212.338 227.237Z" stroke="white" stroke-width="2.03" stroke-miterlimit="10"/>
<path d="M247.995 219.655L353.149 157.436L276.182 113.192L171.281 173.178" stroke="white" stroke-width="2.03" stroke-miterlimit="10"/>
<path opacity="0.32" d="M127.808 168.599C130.445 165.655 128.163 161.36 124.265 160.711L119.235 159.872C117.795 159.632 116.318 159.925 115.079 160.696L112.331 162.406C107.208 165.593 109.467 173.5 115.501 173.5H118.314C118.439 173.5 118.561 173.504 118.686 173.503C119.594 173.493 123.703 173.182 127.808 168.599Z" fill="url(#paint0_linear_301:12745)"/>
<path d="M119.206 164.693C119.46 164.622 119.713 164.571 119.957 164.5C118.147 161.313 117.673 157.54 118.637 154.005C116.821 154.439 115.201 155.464 114.03 156.919C112.86 158.374 112.206 160.177 112.172 162.044C114.598 162.135 118.11 162.5 119.206 164.693Z" fill="#FB9328"/>
<path d="M121.023 164.165C121.571 163.962 122.099 163.729 122.626 163.485C121.439 160.775 124.565 157.791 125.306 155.365C125.328 155.284 125.37 155.21 125.429 155.149C125.488 155.089 125.56 155.044 125.641 155.02C124.23 154.187 122.621 153.749 120.982 153.751C120.605 153.752 120.229 153.776 119.855 153.822C119.322 155.533 119.151 157.336 119.352 159.116C119.552 160.897 120.122 162.616 121.023 164.165Z" fill="#FB9328"/>
<path d="M124.25 163.861C125.397 164.876 127.671 164.581 129.508 164.074C129.896 162.703 129.896 161.252 129.508 159.882C127.975 161.475 126.2 162.818 124.25 163.861Z" fill="#FB9328"/>
<path d="M123.55 162.186C123.567 162.445 123.618 162.701 123.702 162.947C125.728 161.867 127.554 160.449 129.102 158.755C128.502 157.47 127.587 156.356 126.443 155.517C126.448 155.558 126.448 155.599 126.443 155.639C125.702 157.791 123.367 159.811 123.55 162.186Z" fill="#FB9328"/>
<path d="M118.018 164.997C117.929 164.875 117.83 164.76 117.724 164.652C116.384 163.333 114.161 163.18 112.243 163.13C112.35 163.92 112.576 164.69 112.913 165.413C114.625 165.479 116.339 165.339 118.018 164.997Z" fill="#FB9328"/>
<path d="M123.195 164.388C122.677 164.632 122.18 164.865 121.601 165.078C122.722 166.649 124.148 167.978 125.793 168.986C127.216 168.118 128.353 166.851 129.061 165.342C126.94 165.85 124.565 165.941 123.195 164.388Z" fill="#FB9328"/>
<path d="M120.505 165.454C120.16 165.566 119.805 165.637 119.49 165.738C119.663 167.494 117.968 168.489 116.141 169.017C117.423 169.805 118.879 170.267 120.381 170.362C121.883 170.458 123.386 170.184 124.758 169.565C123.089 168.481 121.644 167.086 120.505 165.454Z" fill="#FB9328"/>
<path d="M118.394 166.022C116.799 166.361 115.172 166.524 113.542 166.51C113.948 167.128 114.432 167.691 114.983 168.184C116.547 167.789 118.292 167.098 118.394 166.022Z" fill="#FB9328"/>
<path d="M124.25 163.861C126.188 162.808 127.948 161.459 129.467 159.861C129.358 159.469 129.219 159.086 129.051 158.714C127.503 160.409 125.677 161.827 123.652 162.906C123.584 162.655 123.55 162.395 123.55 162.135C123.408 159.801 125.742 157.781 126.433 155.609C126.438 155.568 126.438 155.527 126.433 155.487C126.184 155.304 125.927 155.135 125.661 154.979C125.581 155.004 125.508 155.048 125.449 155.109C125.391 155.169 125.348 155.243 125.326 155.324C124.585 157.781 121.459 160.775 122.647 163.444C122.119 163.688 121.632 163.921 121.043 164.124C120.135 162.569 119.562 160.841 119.361 159.051C119.16 157.261 119.335 155.449 119.876 153.731C119.462 153.781 119.051 153.859 118.648 153.964C117.683 157.5 118.158 161.273 119.967 164.459C119.723 164.53 119.46 164.581 119.216 164.652C118.13 162.46 114.618 162.135 112.182 162.013C112.185 162.373 112.212 162.733 112.263 163.089C114.182 163.089 116.404 163.292 117.744 164.612C117.851 164.719 117.949 164.835 118.039 164.957C116.369 165.296 114.666 165.435 112.964 165.373C113.141 165.754 113.348 166.12 113.583 166.469C115.213 166.483 116.84 166.32 118.434 165.982C118.333 167.058 116.587 167.738 115.024 168.113C115.386 168.425 115.773 168.707 116.181 168.956C118.008 168.428 119.703 167.433 119.531 165.677C119.886 165.586 120.241 165.505 120.546 165.393C121.667 167.019 123.09 168.414 124.738 169.504C125.112 169.336 125.475 169.143 125.824 168.925C124.178 167.917 122.752 166.588 121.632 165.018C122.17 164.815 122.647 164.581 123.225 164.327C124.585 165.88 126.96 165.789 129.092 165.282C129.276 164.875 129.425 164.454 129.538 164.023C127.671 164.581 125.407 164.896 124.25 163.861Z" fill="#641300"/>
<path opacity="0.3" d="M127.762 156.715C128.493 161.79 125.418 167.322 118.546 167.322C116.632 167.362 114.748 166.832 113.136 165.799C113.909 167.203 115.047 168.37 116.43 169.178C117.814 169.986 119.39 170.404 120.992 170.387C123.268 170.447 125.475 169.601 127.127 168.034C128.779 166.468 129.741 164.309 129.802 162.033C129.793 160.071 129.068 158.18 127.762 156.715Z" fill="#CC5F1F"/>
<path opacity="0.32" d="M313.96 163.546L255.273 145.012L222.133 162.988L256.582 201.832C256.582 201.832 303.038 169.788 313.96 163.546Z" fill="url(#paint1_linear_301:12745)"/>
<path d="M325.257 156.999V151.579L318.629 151.467L256.582 140.952V146.372" fill="#2E1920"/>
<path d="M325.257 157.03L282.474 131.452L256.582 146.402L300.125 171.544L325.257 157.03Z" fill="#2E1920"/>
<path d="M325.257 151.609L282.474 126.042L256.582 140.982L300.125 166.124L325.257 151.609Z" fill="#412E32"/>
<path d="M279.45 47.4806L293.609 148.696L289.305 145.438L275.542 46.8818L279.45 47.4806Z" fill="#412E32"/>
<path d="M269.29 49.6324L283.185 41.9286C282.048 40.9745 279.287 38.6704 275.958 39.5636L267.26 44.2022" fill="#412E32"/>
<path d="M283.784 43.2075C283.722 42.8134 283.567 42.4397 283.333 42.1169C283.098 41.7941 282.791 41.5314 282.435 41.3502C282.08 41.169 281.687 41.0746 281.288 41.0745C280.889 41.0745 280.495 41.1689 280.14 41.35L271.147 46.1916V52.3628L279.44 47.44L293.65 148.656L299.638 146.291L283.784 43.2075Z" fill="#2E1920"/>
<path d="M220.773 57.9148L259.972 80.3666L260.794 81.7774L271.107 88.6287L273.776 88.2734V38.0106L220.773 7.17493L218.124 7.53018L220.773 12.1687V57.9148Z" fill="#1045FF"/>
<path d="M220.773 57.9148L259.972 80.3666L260.794 81.7774L271.107 88.6287L273.776 88.2734V38.0106L220.773 7.17493L218.124 7.53018L220.773 12.1687V57.9148Z" fill="#1045FF"/>
<path d="M218.124 7.53021V58.2701L271.107 88.6287V38.3659L218.124 7.53021Z" fill="#33B0FF"/>
<path d="M220.773 12.8082V56.4938L267.3 82.6301V39.3708L220.773 12.8082Z" fill="#F8F8FA"/>
<path d="M228.761 30.459V49.6527L259.333 66.8569V47.714L228.761 30.459Z" stroke="#1045FF" stroke-width="1.015" stroke-miterlimit="10"/>
<path d="M238.109 49.9673V52.8804L246.006 56.3212L248.726 54.4638V51.1752" fill="#874639"/>
<path d="M243.6 54.0781L248.736 51.2361L241.631 47.3486L237.063 49.7136C238.982 50.0933 240.747 51.0287 242.138 52.4033L242.26 52.5251C242.774 52.9812 243.224 53.5034 243.6 54.0781Z" fill="#641300"/>
<path d="M219.098 62.056C219.779 67.6474 220.748 73.2001 222.001 78.6918C222.043 78.848 222.145 78.9811 222.285 79.062C222.424 79.1429 222.591 79.1649 222.747 79.1232C222.903 79.0815 223.036 78.9794 223.117 78.8395C223.198 78.6996 223.22 78.5333 223.178 78.3772V78.2452C224.242 78.8491 225.392 79.2872 226.589 79.5444L227.177 81.5034C227.212 81.6407 227.293 81.7614 227.408 81.8441C227.523 81.9268 227.664 81.9662 227.805 81.9552C227.946 81.9443 228.078 81.8837 228.179 81.7843C228.28 81.6849 228.342 81.553 228.355 81.412L228.669 79.9403C229.845 80.0871 231.027 80.1684 232.212 80.1839C232.364 80.8335 232.516 81.4831 232.689 82.1225C232.731 82.2787 232.833 82.4118 232.972 82.4927C233.112 82.5736 233.279 82.5956 233.435 82.5539C233.591 82.5122 233.724 82.4101 233.805 82.2702C233.886 82.1303 233.908 81.964 233.866 81.8079V81.7368C234.039 81.2293 234.201 80.7218 234.364 80.2042C235.61 80.1444 236.846 79.9435 238.048 79.6053C238.139 80.4782 238.241 81.3613 238.312 82.2342C238.327 82.3443 238.371 82.4485 238.438 82.5367C238.506 82.6248 238.595 82.6938 238.698 82.7368C238.8 82.7799 238.912 82.7955 239.022 82.7821C239.133 82.7687 239.238 82.7268 239.327 82.6605C239.403 82.627 239.471 82.5767 239.526 82.5135C239.58 82.4503 239.62 82.3756 239.642 82.2951C240.027 81.0365 240.382 79.7576 240.728 78.4787C241.042 78.2949 241.347 78.095 241.641 77.8798C241.667 78.0172 241.74 78.1414 241.847 78.2307C241.955 78.32 242.09 78.3689 242.23 78.3689C242.37 78.3689 242.505 78.32 242.612 78.2307C242.72 78.1414 242.793 78.0172 242.818 77.8798C244.227 73.4271 245.36 68.8916 246.209 64.2991C246.3 63.5582 245.194 63.2841 245.031 63.9845C244.869 64.6848 244.767 65.3446 244.625 66.0145C244.52 66.0325 244.422 66.078 244.341 66.1464C243.909 66.4876 243.443 66.7835 242.95 67.0295C243.032 66.4509 243.113 66.0145 243.194 65.2735C243.275 64.5326 242.098 64.4514 242.017 65.2735C241.935 66.0957 241.824 66.8671 241.712 67.6385C240.344 68.123 238.929 68.4631 237.49 68.6535C237.396 68.3749 237.341 68.0845 237.327 67.7907C237.384 67.5672 237.425 67.3399 237.449 67.1107C237.47 66.968 237.44 66.8226 237.367 66.6988C237.293 66.575 237.178 66.4803 237.043 66.4306L236.962 66.0449C236.92 65.8888 236.818 65.7556 236.678 65.6747C236.538 65.5938 236.372 65.5718 236.216 65.6136C236.06 65.6553 235.927 65.7573 235.846 65.8972C235.765 66.0371 235.743 66.2034 235.785 66.3596C235.956 66.8294 236.059 67.3218 236.089 67.8212C236.028 68.1663 235.947 68.5012 235.886 68.8362C234.506 68.9783 233.217 69.0595 232.039 69.1305H230.862C230.943 68.6535 231.055 68.1866 231.136 67.7095C231.15 67.6108 231.14 67.5101 231.108 67.4157C231.076 67.3212 231.023 67.2356 230.952 67.1655C230.881 67.0955 230.794 67.0431 230.699 67.0124C230.604 66.9817 230.504 66.9737 230.405 66.9889L230.344 66.7047C230.151 65.9637 229.014 66.319 229.167 67.0193L229.623 69.1407C227.887 69.1135 226.157 68.9198 224.457 68.5621L223.036 63.8424C223.015 63.7651 222.98 63.6926 222.931 63.6291C222.882 63.5656 222.822 63.5122 222.752 63.4722C222.683 63.4321 222.607 63.4061 222.527 63.3956C222.448 63.3851 222.367 63.3903 222.29 63.411C222.213 63.4317 222.14 63.4674 222.077 63.516C222.013 63.5647 221.96 63.6254 221.92 63.6947C221.88 63.764 221.854 63.8404 221.843 63.9198C221.833 63.9991 221.838 64.0797 221.859 64.157L223.036 68.217C222.359 68.0343 221.703 67.8246 221.067 67.5877C220.773 65.7506 220.499 63.9033 220.275 62.056C220.184 61.2947 219.007 61.2947 219.098 62.056ZM229.908 73.221H230.405L230.973 75.657H229.39L229.908 73.221ZM224.741 69.77C226.246 70.0372 227.77 70.1832 229.299 70.2064C229.177 70.7342 229.075 71.3534 228.954 71.9218C227.683 71.8316 226.425 71.614 225.198 71.2722L224.711 69.77H224.741ZM235.51 69.8715C235.409 70.4703 235.297 71.059 235.165 71.6579C233.91 71.8648 232.641 71.9869 231.369 72.0233L230.963 70.2369C232.005 70.2369 233.044 70.1658 234.079 70.0237L235.51 69.8715ZM236.211 72.6323L236.911 72.4902C237.043 73.3022 237.175 74.0736 237.287 74.8551C236.739 74.9634 236.187 75.0615 235.632 75.1495C235.805 74.3578 235.977 73.5255 236.201 72.6627L236.211 72.6323ZM243.833 68.7956L243.742 68.8971C243.336 69.1102 242.93 69.3234 242.494 69.5264C242.579 69.1389 242.633 68.7451 242.656 68.349C243.184 68.1231 243.693 67.8549 244.179 67.5471L243.894 68.8057L243.833 68.7956ZM242.818 72.7642C242.47 73.0052 242.107 73.2255 241.732 73.424C241.905 72.5815 242.047 71.7391 242.209 70.8966C242.656 70.7072 243.089 70.5109 243.509 70.3079C243.306 71.1199 243.123 71.9522 242.9 72.7642H242.829H242.818ZM241.803 75.9818C241.56 76.2294 241.302 76.4632 241.032 76.6821C241.174 76.0325 241.306 75.4641 241.448 74.8551C241.794 74.7134 242.133 74.5542 242.463 74.3781C242.331 74.8653 242.189 75.3931 242.047 75.8397C241.988 75.8644 241.933 75.8987 241.885 75.9412L241.803 75.9818ZM238.83 77.9204C238.748 77.1693 238.627 76.4893 238.596 75.7889C239.114 75.657 239.611 75.5149 240.119 75.3525C239.946 76.0934 239.763 76.8547 239.581 77.5956C239.357 77.7174 239.134 77.8291 238.911 77.9306L238.83 77.9204ZM238.373 74.5912C238.251 73.8097 238.129 73.0484 238.068 72.2669C239.044 72.0218 240.006 71.7271 240.951 71.3838C240.788 72.2567 240.636 73.1195 240.443 73.9822C239.779 74.2237 239.101 74.4271 238.413 74.5912H238.373ZM237.815 71.2011C237.733 70.7038 237.622 70.1861 237.53 69.7091C238.822 69.5425 240.099 69.2709 241.347 68.8971C241.276 69.2523 241.215 69.6685 241.144 70.0745C240.06 70.5334 238.948 70.9233 237.815 71.2417V71.2011ZM237.713 78.3061C236.691 78.6094 235.64 78.8 234.577 78.8745C234.82 78.0524 235.054 77.2099 235.277 76.3675C235.988 76.266 236.708 76.1442 237.429 76.0021C237.53 76.7735 237.642 77.5347 237.733 78.3061H237.713ZM232.993 78.905L232.435 76.7836H232.608L233.937 76.6415C233.714 77.3926 233.48 78.2046 233.227 79.0065H232.953L232.993 78.905ZM232.191 75.5047C231.999 74.7638 231.836 73.9213 231.674 73.1905C232.758 73.1526 233.839 73.0544 234.912 72.8962C234.719 73.7082 234.536 74.5202 234.323 75.3322L232.658 75.525H232.202L232.191 75.5047ZM231.765 78.8948C230.852 78.8948 229.826 78.8035 228.791 78.702C228.933 78.0524 229.065 77.4028 229.197 76.7532C229.894 76.7904 230.592 76.7904 231.288 76.7532C231.45 77.4738 231.603 78.1945 231.785 78.905L231.765 78.8948ZM226.822 76.3776C227.206 76.4899 227.601 76.558 227.999 76.5806C227.868 77.2099 227.756 77.8291 227.624 78.4584H227.36L226.822 76.3776ZM228.243 75.4438C227.618 75.3813 226.998 75.2796 226.386 75.1393L225.635 72.612C226.659 72.8535 227.701 73.0164 228.751 73.0992L228.253 75.4641L228.243 75.4438ZM222.661 76.4588C222.569 75.9006 222.458 75.3423 222.356 74.7942C223.342 75.3391 224.383 75.778 225.462 76.1036L226.091 78.1336C224.843 77.8435 223.683 77.2549 222.711 76.4182L222.661 76.4588ZM222.082 73.4138C221.93 72.6323 221.808 71.8406 221.676 70.9981C222.51 71.5066 223.395 71.9283 224.315 72.2567L225.066 74.7435C224.189 74.4302 223.343 74.036 222.539 73.5661C222.477 73.5279 222.409 73.5029 222.337 73.4924C222.265 73.4819 222.192 73.4863 222.123 73.5052L222.082 73.4138ZM221.92 69.8512C221.85 69.8185 221.774 69.8016 221.696 69.8016C221.619 69.8016 221.543 69.8185 221.473 69.8512C221.398 69.517 221.347 69.1778 221.321 68.8362C222.031 69.0696 222.752 69.2828 223.473 69.4655L223.879 70.7951C223.21 70.5398 222.565 70.2274 221.95 69.8613L221.92 69.8512Z" fill="#FB9328"/>
<path d="M218.56 59.011C218.539 59.0941 218.535 59.1807 218.547 59.2655C218.56 59.3503 218.59 59.4316 218.635 59.5046C218.68 59.5777 218.74 59.6409 218.809 59.6905C218.879 59.7402 218.959 59.7752 219.042 59.7936C219.126 59.812 219.213 59.8134 219.297 59.7976C219.382 59.7818 219.462 59.7492 219.533 59.7018C219.605 59.6543 219.666 59.593 219.713 59.5214C219.76 59.4498 219.793 59.3694 219.808 59.2851C220.053 58.768 220.469 58.3518 220.986 58.1077C221.378 59.1903 221.75 60.2831 222.102 61.3861L221.087 61.7718C220.387 62.0865 220.702 63.2334 221.402 62.9492L222.417 62.5432C222.63 63.2131 222.833 63.9033 223.016 64.5732C223.016 64.7293 223.078 64.8791 223.188 64.9895C223.299 65.0999 223.448 65.1619 223.605 65.1619C223.761 65.1619 223.91 65.0999 224.021 64.9895C224.131 64.8791 224.193 64.7293 224.193 64.5732L224.762 61.7515C225.792 61.4343 226.839 61.1734 227.898 60.97C228.422 62.4983 228.72 64.0953 228.781 65.71C228.759 65.7924 228.755 65.8786 228.769 65.9628C228.783 66.047 228.815 66.1272 228.862 66.198C228.91 66.2689 228.972 66.3288 229.044 66.3737C229.117 66.4187 229.198 66.4476 229.283 66.4585C229.367 66.4694 229.453 66.4622 229.535 66.4372C229.617 66.4122 229.692 66.3701 229.756 66.3136C229.82 66.2571 229.871 66.1877 229.906 66.1098C229.941 66.032 229.959 65.9476 229.958 65.8623L231.42 60.5234C232.141 60.4625 232.861 60.4625 233.582 60.4625L234.14 65.5375C234.221 66.1363 235.216 66.4002 235.318 65.6897C235.599 63.9796 236.044 62.3005 236.647 60.6756C237.796 60.8437 238.929 61.1016 240.037 61.447C240.124 62.3204 240.158 63.1983 240.139 64.0759C240.117 64.1583 240.113 64.2445 240.127 64.3286C240.141 64.4128 240.173 64.493 240.22 64.5639C240.268 64.6348 240.33 64.6947 240.402 64.7396C240.475 64.7845 240.556 64.8134 240.641 64.8243C240.725 64.8353 240.811 64.828 240.893 64.803C240.974 64.778 241.05 64.7359 241.114 64.6795C241.178 64.623 241.229 64.5535 241.264 64.4757C241.299 64.3978 241.317 64.3134 241.316 64.2281L241.946 62.1271L243.021 62.6041C243.691 62.9391 244.3 61.9241 243.61 61.5891C243.17 61.3793 242.731 61.1831 242.291 61.0004L243.306 57.7524C244.281 58.2332 245.227 58.7721 246.138 59.3663C246.726 59.7926 247.366 58.7674 246.726 58.3513C245.749 57.7083 244.732 57.1286 243.681 56.6156L244.25 54.7074C244.27 54.6301 244.276 54.5495 244.265 54.4701C244.255 54.3908 244.229 54.3143 244.188 54.2451C244.148 54.1758 244.095 54.1151 244.032 54.0664C243.968 54.0177 243.896 53.982 243.818 53.9614C243.741 53.9407 243.66 53.9355 243.581 53.946C243.502 53.9565 243.425 53.9825 243.356 54.0226C243.287 54.0626 243.226 54.1159 243.177 54.1794C243.129 54.243 243.093 54.3154 243.072 54.3928L242.565 56.1183C241.929 55.8408 241.282 55.5938 240.626 55.3773C240.454 54.2405 240.251 53.1748 239.997 51.9872C239.952 51.8676 239.871 51.7646 239.766 51.6919C239.661 51.6192 239.536 51.5803 239.408 51.5803C239.28 51.5803 239.155 51.6192 239.05 51.6919C238.945 51.7646 238.865 51.8676 238.819 51.9872C238.515 52.8703 238.18 53.7432 237.804 54.6161C236.591 54.3526 235.359 54.1829 234.12 54.1086L233.856 51.7436C233.878 51.6612 233.882 51.575 233.868 51.4908C233.854 51.4066 233.822 51.3264 233.775 51.2556C233.727 51.1847 233.665 51.1248 233.593 51.0799C233.52 51.035 233.439 51.0061 233.354 50.9951C233.27 50.9842 233.184 50.9914 233.102 51.0164C233.02 51.0414 232.945 51.0836 232.881 51.14C232.817 51.1965 232.766 51.2659 232.731 51.3438C232.696 51.4216 232.678 51.506 232.679 51.5914L231.978 54.1187C231.504 54.1781 231.025 54.2019 230.547 54.1898C229.409 54.2988 228.28 54.4853 227.167 54.748C226.951 54.0104 226.775 53.2615 226.639 52.5049C226.639 52.3487 226.577 52.199 226.467 52.0886C226.357 51.9782 226.207 51.9162 226.051 51.9162C225.895 51.9162 225.745 51.9782 225.634 52.0886C225.524 52.199 225.462 52.3487 225.462 52.5049L224.883 55.3773C224.214 55.6006 223.554 55.8544 222.853 56.1284L221.676 56.6055C221.412 55.9051 221.189 55.2048 220.864 54.5044C220.539 53.8041 219.402 54.1187 219.687 54.8191C219.971 55.5194 220.285 56.3111 220.57 57.0927C220.123 57.2535 219.713 57.5027 219.364 57.8253C219.015 58.1478 218.735 58.5373 218.54 58.9704L218.56 59.011ZM231.552 55.3063L230.405 59.417C229.823 59.4711 229.241 59.5456 228.659 59.6403C228.243 58.3817 227.796 57.1231 227.401 55.8747C228.765 55.5617 230.154 55.3714 231.552 55.3063ZM234.089 55.3063C235.113 55.3832 236.13 55.529 237.134 55.7427L235.663 59.4272L234.485 59.3257L234.049 55.3266L234.089 55.3063ZM240.991 60.6147C240.9 59.3054 240.748 58.0062 240.565 56.707C241.046 56.8829 241.519 57.0724 241.986 57.2754L240.991 60.6147ZM239.784 60.2087C238.838 59.9255 237.875 59.7018 236.901 59.5388C237.358 58.3614 237.855 57.1739 238.342 55.9965L239.357 56.2807C239.547 57.5866 239.696 58.8994 239.804 60.2189L239.784 60.2087ZM235.297 60.5538C235.121 61.0478 234.956 61.5451 234.8 62.0459L234.638 60.5031L235.297 60.5538ZM233.328 59.2648C232.755 59.2472 232.182 59.271 231.613 59.3358L232.729 55.2758H232.882L233.318 59.3358L233.328 59.2648ZM229.492 62.665C229.349 62.0357 229.187 61.4064 228.994 60.8076L230.009 60.6655L229.441 62.6955L229.492 62.665ZM227.462 59.8332C226.626 59.9902 225.8 60.1901 224.985 60.432L225.787 56.2908L226.091 56.2096H226.213C226.619 57.4378 227.066 58.7167 227.462 59.8941V59.8332ZM223.138 61.0004C222.793 59.8501 222.4 58.7336 221.96 57.6509C222.792 57.2968 223.642 56.9885 224.508 56.7273L223.665 60.8888L223.138 61.0613V61.0004Z" fill="#FB9328"/>
<path d="M232.547 66.3799C240.512 66.3799 246.97 62.7263 246.97 58.2193C246.97 53.7123 240.512 50.0587 232.547 50.0587C224.581 50.0587 218.124 53.7123 218.124 58.2193C218.124 62.7263 224.581 66.3799 232.547 66.3799Z" stroke="#070928" stroke-width="2.03" stroke-miterlimit="10"/>
<defs>
<linearGradient id="paint0_linear_301:12745" x1="41367.9" y1="5203.77" x2="41075.2" y2="4862.6" gradientUnits="userSpaceOnUse">
<stop offset="0.01" stop-color="#666666" stop-opacity="0"/>
<stop offset="1" stop-color="#1A1A1A"/>
</linearGradient>
<linearGradient id="paint1_linear_301:12745" x1="102231" y1="9992.43" x2="100327" y2="7767.41" gradientUnits="userSpaceOnUse">
<stop offset="0.01" stop-color="#666666" stop-opacity="0"/>
<stop offset="1" stop-color="#1A1A1A"/>
</linearGradient>
</defs>
</svg>
