<svg width="378" height="217" viewBox="0 0 378 217" fill="none" xmlns="http://www.w3.org/2000/svg">
<path d="M1.4751 118.69L171.265 216.53L377.045 99.71L204.845 0.0100098L1.4751 118.69Z" fill="#7AD350"/>
<path d="M98.1651 174.72L68.9351 157.6L273.285 39.71L304.385 57.64L98.1651 174.72Z" fill="#A9E089"/>
<path d="M30.1751 135.01L0.955078 117.89L205.295 0L235.965 18.18L30.1751 135.01Z" fill="#A9E089"/>
<path d="M171.265 216.53L142.035 199.42L346.385 81.53L377.045 99.71L171.265 216.53Z" fill="#A9E089"/>
<path d="M67.7252 43.5201L153.885 94.4601L194.025 118.19C194.395 118.41 195.165 119.09 195.585 119.11C196.905 119.19 194.725 120.79 195.385 118.19C194.905 120.08 195.385 122.69 195.385 124.62V170.43C195.385 172.91 194.935 175.89 195.385 178.34C195.215 177.43 196.865 177.5 195.085 177.88C193.545 178.2 191.735 179.69 190.345 180.44L176.295 188.03C172.535 190.03 168.365 191.83 164.825 194.22C162.825 195.54 164.065 194.11 164.885 194.95C164.645 194.7 164.205 194.65 163.955 194.41C160.575 191.28 154.875 189.2 150.905 186.92L46.7052 127.16L39.4752 123.01C38.5852 122.5 36.7452 120.91 35.6852 120.84C34.7852 120.78 35.9952 121.95 36.1352 121.74C36.5352 121.1 36.4052 119.5 36.4852 118.74L37.9652 106.23L41.6452 75.2301C41.8752 73.2801 42.1552 71.3301 42.3252 69.3701C43.0052 61.2801 48.3252 56.5001 54.7952 52.0801C59.4148 48.912 64.2387 46.0525 69.2352 43.5201C70.9552 42.6501 69.4452 40.0601 67.7252 40.9301C58.2352 45.7501 44.9752 52.3001 40.6652 62.6801C38.9552 66.7901 39.0252 72.1601 38.4952 76.5701L33.1052 121.95C33.1009 122.213 33.1673 122.473 33.2975 122.701C33.4276 122.93 33.6168 123.119 33.8452 123.25L97.3352 159.67L142.025 185.31L156.915 193.85C158.755 194.91 161.265 197.07 163.365 197.55C164.895 197.9 165.815 197.1 167.195 196.36L178.195 190.36L197.595 179.88C197.821 179.747 198.009 179.557 198.139 179.329C198.269 179.101 198.336 178.843 198.335 178.58V121.52C198.335 120.31 198.715 118.34 198.015 117.26C196.905 115.54 193.165 114.26 191.495 113.26L99.0152 58.5201L69.2352 40.9301C68.8928 40.7467 68.4926 40.7034 68.1188 40.8091C67.745 40.9148 67.4269 41.1614 67.2312 41.4969C67.0356 41.8325 66.9778 42.2309 67.0699 42.6082C67.162 42.9855 67.3969 43.3124 67.7252 43.5201Z" fill="#F8F8FA"/>
<path d="M66.9752 42.22V96.64C66.9752 98.09 66.2452 102.06 66.9752 103.35C67.5552 104.35 66.9152 102.93 67.5252 102.78C66.6523 103.127 65.8205 103.57 65.0452 104.1L54.2652 109.82L33.8452 120.65C32.1352 121.55 33.6552 124.15 35.3552 123.24L69.2252 105.24C69.4522 105.108 69.6402 104.918 69.7701 104.69C69.9001 104.461 69.9674 104.203 69.9652 103.94V42.22C69.9652 41.8221 69.8071 41.4406 69.5258 41.1593C69.2445 40.878 68.863 40.72 68.4652 40.72C68.0673 40.72 67.6858 40.878 67.4045 41.1593C67.1232 41.4406 66.9652 41.8221 66.9652 42.22H66.9752Z" fill="#F8F8FA"/>
<path d="M196.485 116.7C189.355 119.6 181.405 123.21 175.985 128.81C171.695 133.24 170.845 140.27 169.655 146.06C166.305 162.3 162.935 179.65 162.655 196.29C162.655 196.688 162.813 197.069 163.095 197.351C163.376 197.632 163.757 197.79 164.155 197.79C164.553 197.79 164.935 197.632 165.216 197.351C165.497 197.069 165.655 196.688 165.655 196.29C165.895 180.88 169.005 164.99 171.925 149.9C173.015 144.29 173.615 136.27 177.405 131.68C182.115 125.97 190.535 122.33 197.275 119.6C199.045 118.88 198.275 115.98 196.475 116.71L196.485 116.7Z" fill="#F8F8FA"/>
<path d="M187.755 183.82H186.755V124.4L59.625 49.47V108.95H58.625V47.72L187.755 123.83V183.82Z" fill="#F8F8FA"/>
<path d="M177.315 189.46H176.315V130.4L48.5752 56.1499V114.12H47.5752V54.4199L177.315 129.82V189.46Z" fill="#F8F8FA"/>
<path d="M171.915 143.22L171.675 143.09L40.7251 67.38L41.2251 66.51L171.935 142.08L196.655 129.19L197.115 130.07L171.915 143.22Z" fill="#F8F8FA"/>
<path d="M169.855 193.49H168.855V156.01L39.085 82.5199L39.585 81.6499L169.855 155.43V193.49Z" fill="#F8F8FA"/>
<path d="M167.175 169.74L37.5649 95.34L38.0649 94.47L167.235 168.61L196.675 155.26L197.095 156.18L167.175 169.74Z" fill="#F8F8FA"/>
<path d="M165.435 182.79L165.205 182.66L35.9951 108.62L36.4851 107.75L165.475 181.67L196.665 166.69L197.105 167.59L165.435 182.79Z" fill="#F8F8FA"/>
<path d="M43.2651 125.52H42.2651C42.3251 116.15 49.0551 68.0399 53.3951 61.0899C57.7351 54.1399 74.5751 47.2099 75.2851 46.9199L75.6551 47.8499C75.4851 47.9199 58.4851 54.8499 54.2351 61.6199C49.9851 68.3899 43.3351 116.22 43.2651 125.52Z" fill="#F8F8FA"/>
<path d="M52.625 130.43H51.625C51.685 121.06 58.415 72.9501 62.755 66.0001C67.095 59.0501 83.935 52.1201 84.645 51.8301L85.015 52.7601C84.845 52.8301 67.845 59.7601 63.595 66.5301C59.345 73.3001 52.685 121.12 52.625 130.43Z" fill="#F8F8FA"/>
<path d="M63.4053 135.93H62.4053C62.4053 126.52 69.1653 78.4401 73.5153 71.5201C77.8653 64.6001 94.6953 57.6401 95.4053 57.3501L95.7753 58.2801C95.6053 58.3501 78.6053 65.2801 74.3553 72.0501C70.1053 78.8201 63.4053 126.61 63.4053 135.93Z" fill="#F8F8FA"/>
<path d="M71.7451 141.68H70.7451C70.8051 132.31 77.5351 84.2001 81.8751 77.2501C86.2151 70.3001 103.055 63.3701 103.765 63.0801L104.135 64.0101C103.965 64.0801 86.9651 71.0101 82.7151 77.7801C78.4651 84.5501 71.8051 132.36 71.7451 141.68Z" fill="#F8F8FA"/>
<path d="M81.105 146.58H80.105C80.165 137.21 86.895 89.1 91.235 82.15C95.575 75.2 112.415 68.27 113.125 67.98L113.495 68.91C113.325 68.98 96.325 75.91 92.075 82.68C87.825 89.45 81.165 137.26 81.105 146.58Z" fill="#F8F8FA"/>
<path d="M91.855 152.08H90.855C90.915 142.71 97.645 94.6 101.985 87.65C106.325 80.7 123.165 73.77 123.875 73.48L124.245 74.41C124.075 74.48 107.075 81.41 102.825 88.18C98.575 94.95 91.925 142.76 91.855 152.08Z" fill="#F8F8FA"/>
<path d="M101.475 158.52H100.475C100.535 149.15 107.265 101.04 111.605 94.0899C115.945 87.1399 132.785 80.2099 133.495 79.9199L133.865 80.8499C133.695 80.9199 116.695 87.8499 112.445 94.6199C108.195 101.39 101.535 149.24 101.475 158.52Z" fill="#F8F8FA"/>
<path d="M112.255 164.6H111.255C111.315 155.23 118.045 107.12 122.385 100.17C126.725 93.22 143.565 86.29 144.275 86L144.645 86.93C144.475 87 127.475 93.93 123.225 100.7C118.975 107.47 112.315 155.29 112.255 164.6Z" fill="#F8F8FA"/>
<path d="M124.565 171.95H123.565C123.625 162.58 130.355 114.47 134.695 107.52C139.035 100.57 155.875 93.6401 156.585 93.3501L156.955 94.2801C156.785 94.3501 139.785 101.28 135.535 108.05C131.285 114.82 124.635 162.63 124.565 171.95Z" fill="#F8F8FA"/>
<path d="M131.965 178.16H130.965C131.025 168.79 137.755 120.68 142.095 113.73C146.435 106.78 163.275 99.8501 163.985 99.5601L164.355 100.49C164.185 100.56 147.185 107.49 142.935 114.26C138.685 121.03 132.025 168.84 131.965 178.16Z" fill="#F8F8FA"/>
<path d="M142.005 183.98H141.005C141.065 174.61 147.795 126.5 152.135 119.55C156.475 112.6 173.315 105.67 174.025 105.38L174.395 106.31C174.225 106.38 157.225 113.31 152.975 120.08C148.725 126.85 142.075 174.67 142.005 183.98Z" fill="#F8F8FA"/>
<path d="M152.765 189.52H151.765C151.825 180.15 158.555 132.04 162.895 125.09C167.235 118.14 184.075 111.21 184.785 110.92L185.155 111.85C184.985 111.92 167.985 118.85 163.735 125.62C159.485 132.39 152.825 180.16 152.765 189.52Z" fill="#F8F8FA"/>
<path d="M196.673 142.203L169.146 155.268L169.575 156.171L197.102 143.107L196.673 142.203Z" fill="#F8F8FA"/>
<g opacity="0.15">
<path opacity="0.15" d="M67.7252 43.5201L153.885 94.4601L194.025 118.19C194.395 118.41 195.165 119.09 195.585 119.11C196.905 119.19 194.725 120.79 195.385 118.19C194.905 120.08 195.385 122.69 195.385 124.62V170.43C195.385 172.91 194.935 175.89 195.385 178.34C195.215 177.43 196.865 177.5 195.085 177.88C193.545 178.2 191.735 179.69 190.345 180.44L176.295 188.03C172.535 190.03 168.365 191.83 164.825 194.22C162.825 195.54 164.065 194.11 164.885 194.95C164.645 194.7 164.205 194.65 163.955 194.41C160.575 191.28 154.875 189.2 150.905 186.92L46.7052 127.16L39.4752 123.01C38.5852 122.5 36.7452 120.91 35.6852 120.84C34.7852 120.78 35.9952 121.95 36.1352 121.74C36.5352 121.1 36.4052 119.5 36.4852 118.74L37.9652 106.23L41.6452 75.2301C41.8752 73.2801 42.1552 71.3301 42.3252 69.3701C43.0052 61.2801 48.3252 56.5001 54.7952 52.0801C59.4148 48.912 64.2387 46.0525 69.2352 43.5201C70.9552 42.6501 69.4452 40.0601 67.7252 40.9301C58.2352 45.7501 44.9752 52.3001 40.6652 62.6801C38.9552 66.7901 39.0252 72.1601 38.4952 76.5701L33.1052 121.95C33.1009 122.213 33.1673 122.473 33.2975 122.701C33.4276 122.93 33.6168 123.119 33.8452 123.25L97.3352 159.67L142.025 185.31L156.915 193.85C158.755 194.91 161.265 197.07 163.365 197.55C164.895 197.9 165.815 197.1 167.195 196.36L178.195 190.36L197.595 179.88C197.821 179.747 198.009 179.557 198.139 179.329C198.269 179.101 198.336 178.843 198.335 178.58V121.52C198.335 120.31 198.715 118.34 198.015 117.26C196.905 115.54 193.165 114.26 191.495 113.26L99.0152 58.5201L69.2352 40.9301C68.8928 40.7467 68.4926 40.7034 68.1188 40.8091C67.745 40.9148 67.4269 41.1614 67.2312 41.4969C67.0356 41.8325 66.9778 42.2309 67.0699 42.6082C67.162 42.9855 67.3969 43.3124 67.7252 43.5201Z" fill="#56403D"/>
<path opacity="0.15" d="M66.9752 42.22V96.64C66.9752 98.09 66.2452 102.06 66.9752 103.35C67.5552 104.35 66.9152 102.93 67.5252 102.78C66.6523 103.127 65.8205 103.57 65.0452 104.1L54.2652 109.82L33.8452 120.65C32.1352 121.55 33.6552 124.15 35.3552 123.24L69.2252 105.24C69.4522 105.108 69.6402 104.918 69.7701 104.69C69.9001 104.461 69.9674 104.203 69.9652 103.94V42.22C69.9652 41.8221 69.8071 41.4406 69.5258 41.1593C69.2445 40.878 68.863 40.72 68.4652 40.72C68.0673 40.72 67.6858 40.878 67.4045 41.1593C67.1232 41.4406 66.9652 41.8221 66.9652 42.22H66.9752Z" fill="#56403D"/>
<path opacity="0.15" d="M196.485 116.7C189.355 119.6 181.405 123.21 175.985 128.81C171.695 133.24 170.845 140.27 169.655 146.06C166.305 162.3 162.935 179.65 162.655 196.29C162.655 196.688 162.813 197.069 163.095 197.351C163.376 197.632 163.757 197.79 164.155 197.79C164.553 197.79 164.935 197.632 165.216 197.351C165.497 197.069 165.655 196.688 165.655 196.29C165.895 180.88 169.005 164.99 171.925 149.9C173.015 144.29 173.615 136.27 177.405 131.68C182.115 125.97 190.535 122.33 197.275 119.6C199.045 118.88 198.275 115.98 196.475 116.71L196.485 116.7Z" fill="#56403D"/>
<path opacity="0.15" d="M187.755 183.82H186.755V124.4L59.625 49.47V108.95H58.625V47.72L187.755 123.83V183.82Z" fill="#56403D"/>
<path opacity="0.15" d="M177.315 189.46H176.315V130.4L48.5752 56.1499V114.12H47.5752V54.4199L177.315 129.82V189.46Z" fill="#56403D"/>
<path opacity="0.15" d="M171.915 143.22L171.675 143.09L40.7251 67.38L41.2251 66.51L171.935 142.08L196.655 129.19L197.115 130.07L171.915 143.22Z" fill="#56403D"/>
<path opacity="0.15" d="M169.855 193.49H168.855V156.01L39.085 82.5199L39.585 81.6499L169.855 155.43V193.49Z" fill="#56403D"/>
<path opacity="0.15" d="M167.175 169.74L37.5649 95.34L38.0649 94.47L167.235 168.61L196.675 155.26L197.095 156.18L167.175 169.74Z" fill="#56403D"/>
<path opacity="0.15" d="M165.435 182.79L165.205 182.66L35.9951 108.62L36.4851 107.75L165.475 181.67L196.665 166.69L197.105 167.59L165.435 182.79Z" fill="#56403D"/>
<path opacity="0.15" d="M43.2651 125.52H42.2651C42.3251 116.15 49.0551 68.0399 53.3951 61.0899C57.7351 54.1399 74.5751 47.2099 75.2851 46.9199L75.6551 47.8499C75.4851 47.9199 58.4851 54.8499 54.2351 61.6199C49.9851 68.3899 43.3351 116.22 43.2651 125.52Z" fill="#56403D"/>
<path opacity="0.15" d="M52.625 130.43H51.625C51.685 121.06 58.415 72.9501 62.755 66.0001C67.095 59.0501 83.935 52.1201 84.645 51.8301L85.015 52.7601C84.845 52.8301 67.845 59.7601 63.595 66.5301C59.345 73.3001 52.685 121.12 52.625 130.43Z" fill="#56403D"/>
<path opacity="0.15" d="M63.4053 135.93H62.4053C62.4053 126.52 69.1653 78.4401 73.5153 71.5201C77.8653 64.6001 94.6953 57.6401 95.4053 57.3501L95.7753 58.2801C95.6053 58.3501 78.6053 65.2801 74.3553 72.0501C70.1053 78.8201 63.4053 126.61 63.4053 135.93Z" fill="#56403D"/>
<path opacity="0.15" d="M71.7451 141.68H70.7451C70.8051 132.31 77.5351 84.2001 81.8751 77.2501C86.2151 70.3001 103.055 63.3701 103.765 63.0801L104.135 64.0101C103.965 64.0801 86.9651 71.0101 82.7151 77.7801C78.4651 84.5501 71.8051 132.36 71.7451 141.68Z" fill="#56403D"/>
<path opacity="0.15" d="M81.105 146.58H80.105C80.165 137.21 86.895 89.1 91.235 82.15C95.575 75.2 112.415 68.27 113.125 67.98L113.495 68.91C113.325 68.98 96.325 75.91 92.075 82.68C87.825 89.45 81.165 137.26 81.105 146.58Z" fill="#56403D"/>
<path opacity="0.15" d="M91.855 152.08H90.855C90.915 142.71 97.645 94.6 101.985 87.65C106.325 80.7 123.165 73.77 123.875 73.48L124.245 74.41C124.075 74.48 107.075 81.41 102.825 88.18C98.575 94.95 91.925 142.76 91.855 152.08Z" fill="#56403D"/>
<path opacity="0.15" d="M101.475 158.52H100.475C100.535 149.15 107.265 101.04 111.605 94.0899C115.945 87.1399 132.785 80.2099 133.495 79.9199L133.865 80.8499C133.695 80.9199 116.695 87.8499 112.445 94.6199C108.195 101.39 101.535 149.24 101.475 158.52Z" fill="#56403D"/>
<path opacity="0.15" d="M112.255 164.6H111.255C111.315 155.23 118.045 107.12 122.385 100.17C126.725 93.22 143.565 86.29 144.275 86L144.645 86.93C144.475 87 127.475 93.93 123.225 100.7C118.975 107.47 112.315 155.29 112.255 164.6Z" fill="#56403D"/>
<path opacity="0.15" d="M124.565 171.95H123.565C123.625 162.58 130.355 114.47 134.695 107.52C139.035 100.57 155.875 93.6401 156.585 93.3501L156.955 94.2801C156.785 94.3501 139.785 101.28 135.535 108.05C131.285 114.82 124.635 162.63 124.565 171.95Z" fill="#56403D"/>
<path opacity="0.15" d="M131.965 178.16H130.965C131.025 168.79 137.755 120.68 142.095 113.73C146.435 106.78 163.275 99.8501 163.985 99.5601L164.355 100.49C164.185 100.56 147.185 107.49 142.935 114.26C138.685 121.03 132.025 168.84 131.965 178.16Z" fill="#56403D"/>
<path opacity="0.15" d="M142.005 183.98H141.005C141.065 174.61 147.795 126.5 152.135 119.55C156.475 112.6 173.315 105.67 174.025 105.38L174.395 106.31C174.225 106.38 157.225 113.31 152.975 120.08C148.725 126.85 142.075 174.67 142.005 183.98Z" fill="#56403D"/>
<path opacity="0.15" d="M152.765 189.52H151.765C151.825 180.15 158.555 132.04 162.895 125.09C167.235 118.14 184.075 111.21 184.785 110.92L185.155 111.85C184.985 111.92 167.985 118.85 163.735 125.62C159.485 132.39 152.825 180.16 152.765 189.52Z" fill="#56403D"/>
<path opacity="0.15" d="M196.673 142.203L169.146 155.268L169.575 156.171L197.102 143.107L196.673 142.203Z" fill="#56403D"/>
</g>
<path style="mix-blend-mode:multiply" d="M243.905 63.0201L217.905 71.5201C217.905 71.5201 203.905 92.0201 235.405 90.0201L256.405 74.0201C250.154 73.7561 255.166 57.0046 248.97 58.1653L243.905 63.0201Z" fill="url(#paint0_linear_319:12397)"/>
<path d="M236.594 60.98L236.414 60.93L237.784 56.74C235.425 58.766 233.9 61.595 233.504 64.68L233.594 64.78C234.502 63.4433 235.505 62.1734 236.594 60.98Z" fill="white"/>
<path d="M238.914 71.98L238.974 71.89C237.659 71.7414 236.367 71.4359 235.124 70.98V72.31C235.012 72.2084 234.911 72.0943 234.824 71.97C235.631 73.4932 236.732 74.8407 238.064 75.9343C239.397 77.0279 240.933 77.8456 242.584 78.34C242.678 77.5666 242.748 76.7933 242.794 76.02L238.914 71.98Z" fill="white"/>
<path d="M245.875 53.5601C242.956 53.69 240.161 54.7796 237.925 56.66L243.085 55.1101C243.977 54.5279 244.909 54.0099 245.875 53.5601Z" fill="white"/>
<path d="M254.774 57.6701L257.904 61.6001L258.904 62.1801C257.942 59.4654 256.092 57.1544 253.654 55.6201C254.028 56.2932 254.362 56.9877 254.654 57.7001L254.774 57.6701Z" fill="white"/>
<path d="M252.345 75.8799C250.869 75.6336 249.41 75.2997 247.975 74.8799L243.195 76.0799C243.141 76.8732 243.068 77.6666 242.975 78.4599C245.964 79.2741 249.142 79.034 251.975 77.7799H251.725L252.345 75.8799Z" fill="white"/>
<path d="M245.224 57.6701L245.154 57.7401C247.201 58.3401 249.231 58.9901 251.244 59.6901V59.6101L254.374 57.9001C253.989 56.9688 253.531 56.0693 253.004 55.2101C251.124 54.1748 249.021 53.6088 246.874 53.5601C245.794 54.0103 244.751 54.5453 243.754 55.16L245.224 57.6701Z" fill="white"/>
<path d="M237.015 61.1499C235.867 62.4013 234.818 63.7385 233.875 65.1499L233.965 65.2599L235.135 70.3799V70.6599C236.451 71.1728 237.83 71.5091 239.235 71.6599L241.605 68.2899C240.973 66.3067 240.515 64.2724 240.235 62.2099L237.015 61.1499Z" fill="white"/>
<path d="M252.514 65.6499C250.994 67.0699 249.418 68.4266 247.784 69.7199L248.314 69.8999V74.6199C249.678 75.0028 251.064 75.3033 252.464 75.5199L252.614 75.0399L256.514 71.6099C256.751 69.998 256.848 68.3686 256.804 66.7399L252.514 65.6499Z" fill="white"/>
<path d="M251.274 60.12C249.128 59.3734 246.964 58.68 244.784 58.04L240.574 62.12C240.838 64.0447 241.259 65.9444 241.834 67.8V67.75L247.264 69.56C248.998 68.2267 250.664 66.7934 252.264 65.26L251.274 60.12Z" fill="white"/>
<path d="M257.195 66.18C257.272 67.8732 257.198 69.5699 256.975 71.25H258.585C259.767 68.5629 259.955 65.5429 259.115 62.73L258.295 62.26L257.195 66.18Z" fill="white"/>
<path d="M237.814 56.7002V56.7802L237.954 56.6602L237.814 56.7002Z" fill="#050505"/>
<path d="M257.904 61.6L254.774 57.67H254.704C254.412 56.9576 254.078 56.2631 253.704 55.59L253.004 55.17C253.531 56.0293 253.989 56.9288 254.374 57.86L251.244 59.57V59.65C249.244 58.9834 247.214 58.3334 245.154 57.7L245.224 57.63L243.744 55.12C244.741 54.5053 245.784 53.9703 246.864 53.52H246.524H245.884C244.919 53.9699 243.987 54.4879 243.094 55.07L237.934 56.62L237.794 56.74L236.414 60.98L236.594 61.03C235.505 62.2202 234.503 63.4868 233.594 64.82L233.504 64.72C233.183 67.2356 233.648 69.7889 234.834 72.03C234.921 72.1544 235.022 72.2684 235.134 72.37V71.04C236.377 71.4959 237.669 71.8014 238.984 71.95L238.924 72.04L242.814 76.1C242.761 76.8733 242.691 77.6467 242.604 78.42L242.984 78.53C243.078 77.7367 243.151 76.9433 243.204 76.15L247.984 74.95C249.42 75.3699 250.879 75.7038 252.354 75.95L251.724 77.95H251.974C254.916 76.6498 257.271 74.3054 258.584 71.37H256.974C257.198 69.6899 257.272 67.9932 257.194 66.3L258.284 62.38L259.104 62.85C259.051 62.6633 258.991 62.48 258.924 62.3L257.904 61.6ZM239.274 71.58C237.87 71.4292 236.491 71.0929 235.174 70.58V70.3L234.004 65.18L233.914 65.07C234.858 63.6586 235.907 62.3214 237.054 61.07L240.274 62.07C240.554 64.1325 241.013 66.1668 241.644 68.15L239.274 71.58ZM241.964 67.76V67.81C241.389 65.9544 240.968 64.0547 240.704 62.13L244.914 58.05C247.094 58.7167 249.258 59.41 251.404 60.13L252.404 65.28C250.804 66.78 249.138 68.2134 247.404 69.58L241.964 67.76ZM256.564 71.61L252.664 75.04L252.514 75.52C251.114 75.3034 249.728 75.0029 248.364 74.62V69.9L247.834 69.72C249.468 68.4267 251.044 67.07 252.564 65.65L256.854 66.74C256.882 68.3701 256.768 69.9996 256.514 71.61H256.564Z" fill="#1045FF"/>
<defs>
<linearGradient id="paint0_linear_319:12397" x1="255.219" y1="61.8531" x2="224.123" y2="73.0068" gradientUnits="userSpaceOnUse">
<stop stop-color="#22B573"/>
<stop offset="1" stop-color="white"/>
</linearGradient>
</defs>
</svg>
