<svg width="24" height="24" viewBox="0 0 24 24" fill="current" xmlns="http://www.w3.org/2000/svg">
<path d="M12.0079 19.2553L16.9579 14.3053C17.0501 14.2098 17.1604 14.1336 17.2824 14.0812C17.4044 14.0288 17.5357 14.0012 17.6684 14C17.8012 13.9989 17.9329 14.0242 18.0558 14.0745C18.1787 14.1247 18.2904 14.199 18.3842 14.2929C18.4781 14.3868 18.5524 14.4984 18.6027 14.6213C18.653 14.7442 18.6783 14.8759 18.6771 15.0087C18.6759 15.1415 18.6484 15.2727 18.596 15.3947C18.5435 15.5167 18.4674 15.627 18.3719 15.7193L12.7148 21.3763C12.5273 21.5638 12.273 21.6691 12.0079 21.6691C11.7427 21.6691 11.4884 21.5638 11.3008 21.3763L5.64385 15.7193C5.54834 15.627 5.47216 15.5167 5.41975 15.3947C5.36734 15.2727 5.33975 15.1415 5.3386 15.0087C5.33745 14.8759 5.36275 14.7442 5.41303 14.6213C5.46331 14.4984 5.53756 14.3868 5.63146 14.2929C5.72535 14.199 5.837 14.1247 5.9599 14.0745C6.08279 14.0242 6.21447 13.9989 6.34725 14C6.48003 14.0012 6.61125 14.0288 6.73325 14.0812C6.85526 14.1336 6.9656 14.2098 7.05785 14.3053L12.0079 19.2553Z" />
<path d="M11.6693 5.41379L6.71927 10.3638C6.62703 10.4593 6.51668 10.5355 6.39468 10.5879C6.27267 10.6403 6.14145 10.6679 6.00867 10.669C5.8759 10.6702 5.74422 10.6449 5.62132 10.5946C5.49842 10.5443 5.38677 10.4701 5.29288 10.3762C5.19899 10.2823 5.12473 10.1706 5.07445 10.0477C5.02417 9.92484 4.99887 9.79316 5.00002 9.66039C5.00118 9.52761 5.02876 9.39639 5.08117 9.27438C5.13358 9.15238 5.20976 9.04203 5.30527 8.94979L10.9623 3.29279C11.1498 3.10532 11.4041 3 11.6693 3C11.9344 3 12.1887 3.10532 12.3763 3.29279L18.0333 8.94979C18.1288 9.04203 18.205 9.15238 18.2574 9.27438C18.3098 9.39639 18.3374 9.52761 18.3385 9.66039C18.3397 9.79316 18.3144 9.92484 18.2641 10.0477C18.2138 10.1706 18.1396 10.2823 18.0457 10.3762C17.9518 10.4701 17.8401 10.5443 17.7172 10.5946C17.5943 10.6449 17.4627 10.6702 17.3299 10.669C17.1971 10.6679 17.0659 10.6403 16.9439 10.5879C16.8219 10.5355 16.7115 10.4593 16.6193 10.3638L11.6693 5.41379Z" />
</svg>
