<svg width="16" height="16" viewBox="0 0 16 16" fill="none" xmlns="http://www.w3.org/2000/svg">
<path d="M16.0001 8.17766C16.0001 7.51989 15.9456 7.03989 15.8277 6.54211H8.16333V9.51098H12.6622C12.5715 10.2488 12.0817 11.3599 10.9932 12.1065L10.978 12.2059L13.4013 14.0457L13.5692 14.0621C15.1112 12.6666 16.0001 10.6132 16.0001 8.17766Z" fill="#4285F4"/>
<path d="M8.16289 16C10.3669 16 12.2173 15.2889 13.5688 14.0622L10.9928 12.1066C10.3035 12.5777 9.37828 12.9066 8.16289 12.9066C6.00418 12.9066 4.17199 11.5111 3.51887 9.58215L3.42314 9.59012L0.903314 11.5013L0.870361 11.591C2.21275 14.2044 4.97012 16 8.16289 16Z" fill="#34A853"/>
<path d="M3.51925 9.5822C3.34691 9.08443 3.24718 8.55106 3.24718 7.99997C3.24718 7.44882 3.34691 6.91551 3.51018 6.41774L3.50561 6.31172L0.954207 4.3699L0.870729 4.40882C0.317464 5.49328 0 6.71108 0 7.99997C0 9.28886 0.317464 10.5066 0.870729 11.5911L3.51925 9.5822Z" fill="#FBBC05"/>
<path d="M8.16293 3.09329C9.6958 3.09329 10.7298 3.74218 11.3194 4.28444L13.6232 2.07998C12.2083 0.791086 10.367 -3.05176e-05 8.16293 -3.05176e-05C4.97015 -3.05176e-05 2.21276 1.79552 0.870361 4.40884L3.50982 6.41776C4.17201 4.48887 6.00421 3.09329 8.16293 3.09329Z" fill="#EB4335"/>
</svg>
