<svg width="400" height="200" viewBox="0 0 400 300" fill="none" xmlns="http://www.w3.org/2000/svg">
<path d="M14.0701 190.17L183.86 288.01L389.64 171.19L217.44 71.49L14.0701 190.17Z" fill="#7AD350"/>
<path d="M110.76 246.2L81.53 229.08L285.88 111.19L316.98 129.12L110.76 246.2Z" fill="#A9E089"/>
<path d="M42.7701 206.49L13.55 189.37L217.89 71.48L248.56 89.66L42.7701 206.49Z" fill="#A9E089"/>
<path d="M183.86 288.01L154.63 270.9L358.98 153.01L389.64 171.19L183.86 288.01Z" fill="#A9E089"/>
<path d="M80.3201 115L166.48 165.94L206.62 189.67C206.99 189.89 207.76 190.57 208.18 190.59C209.5 190.67 207.32 192.27 207.98 189.67C207.5 191.56 207.98 194.17 207.98 196.1V241.91C207.98 244.39 207.53 247.37 207.98 249.82C207.81 248.91 209.46 248.98 207.68 249.36C206.14 249.68 204.33 251.17 202.94 251.92L188.89 259.51C185.13 261.51 180.96 263.31 177.42 265.7C175.42 267.02 176.66 265.59 177.48 266.43C177.24 266.18 176.8 266.13 176.55 265.89C173.17 262.76 167.47 260.68 163.5 258.4L59.3001 198.64L52.0701 194.49C51.1801 193.98 49.3401 192.39 48.2801 192.32C47.3801 192.26 48.5901 193.43 48.7301 193.22C49.1301 192.58 49.0001 190.98 49.0801 190.22L50.5601 177.71L54.2401 146.71C54.4701 144.76 54.7501 142.81 54.9201 140.85C55.6001 132.76 60.9201 127.98 67.3901 123.56C72.0098 120.392 76.8336 117.532 81.8301 115C83.5501 114.13 82.0401 111.54 80.3201 112.41C70.8301 117.23 57.5701 123.78 53.2601 134.16C51.5501 138.27 51.6201 143.64 51.0901 148.05L45.7001 193.43C45.6959 193.693 45.7623 193.953 45.8924 194.181C46.0226 194.41 46.2117 194.599 46.4401 194.73L109.93 231.15L154.62 256.79L169.51 265.33C171.35 266.39 173.86 268.55 175.96 269.03C177.49 269.38 178.41 268.58 179.79 267.84L190.79 261.84L210.19 251.36C210.416 251.227 210.604 251.037 210.734 250.809C210.864 250.581 210.931 250.322 210.93 250.06V193C210.93 191.79 211.31 189.82 210.61 188.74C209.5 187.02 205.76 185.74 204.09 184.74L111.61 130L81.8301 112.41C81.4877 112.227 81.0875 112.183 80.7138 112.289C80.34 112.395 80.0219 112.641 79.8262 112.977C79.6306 113.312 79.5727 113.711 79.6649 114.088C79.757 114.465 79.9919 114.792 80.3201 115V115Z" fill="#F8F8FA"/>
<path d="M79.5701 113.7V168.12C79.5701 169.57 78.8401 173.54 79.5701 174.83C80.1501 175.83 79.5101 174.41 80.1201 174.26C79.2472 174.607 78.4155 175.05 77.6401 175.58L66.8601 181.3L46.4401 192.13C44.7301 193.03 46.2501 195.63 47.9501 194.72L81.8201 176.72C82.0471 176.588 82.2351 176.398 82.3651 176.17C82.4951 175.941 82.5623 175.683 82.5601 175.42V113.7C82.5601 113.302 82.4021 112.921 82.1208 112.639C81.8395 112.358 81.458 112.2 81.0601 112.2C80.6623 112.2 80.2808 112.358 79.9995 112.639C79.7182 112.921 79.5601 113.302 79.5601 113.7H79.5701Z" fill="#F8F8FA"/>
<path d="M209.08 188.18C201.95 191.08 194 194.69 188.58 200.29C184.29 204.72 183.44 211.75 182.25 217.54C178.9 233.78 175.53 251.13 175.25 267.77C175.25 268.168 175.408 268.549 175.689 268.831C175.971 269.112 176.352 269.27 176.75 269.27C177.148 269.27 177.529 269.112 177.811 268.831C178.092 268.549 178.25 268.168 178.25 267.77C178.49 252.36 181.6 236.47 184.52 221.38C185.61 215.77 186.21 207.75 190 203.16C194.71 197.45 203.13 193.81 209.87 191.08C211.64 190.36 210.87 187.46 209.07 188.19L209.08 188.18Z" fill="#F8F8FA"/>
<path d="M200.35 255.3H199.35V195.88L72.22 120.95V180.43H71.22V119.2L200.35 195.31V255.3Z" fill="#F8F8FA"/>
<path d="M189.91 260.94H188.91V201.88L61.1702 127.63V185.6H60.1702V125.9L189.91 201.3V260.94Z" fill="#F8F8FA"/>
<path d="M184.51 214.7L184.27 214.57L53.3201 138.86L53.8201 137.99L184.53 213.56L209.25 200.67L209.71 201.55L184.51 214.7Z" fill="#F8F8FA"/>
<path d="M182.45 264.97H181.45V227.49L51.6799 154L52.1799 153.13L182.45 226.91V264.97Z" fill="#F8F8FA"/>
<path d="M179.77 241.22L50.1602 166.82L50.6602 165.95L179.83 240.09L209.27 226.74L209.69 227.66L179.77 241.22Z" fill="#F8F8FA"/>
<path d="M178.03 254.27L177.8 254.14L48.5901 180.1L49.0801 179.23L178.07 253.15L209.26 238.17L209.7 239.07L178.03 254.27Z" fill="#F8F8FA"/>
<path d="M55.8601 197H54.8601C54.9201 187.63 61.6501 139.52 65.9901 132.57C70.3301 125.62 87.1701 118.69 87.8801 118.4L88.2501 119.33C88.0801 119.4 71.0801 126.33 66.8301 133.1C62.5801 139.87 55.9301 187.7 55.8601 197Z" fill="#F8F8FA"/>
<path d="M65.22 201.91H64.22C64.28 192.54 71.01 144.43 75.35 137.48C79.69 130.53 96.53 123.6 97.24 123.31L97.61 124.24C97.44 124.31 80.44 131.24 76.19 138.01C71.94 144.78 65.28 192.6 65.22 201.91Z" fill="#F8F8FA"/>
<path d="M76 207.41H75C75 198 81.76 149.92 86.11 143C90.46 136.08 107.29 129.12 108 128.83L108.37 129.76C108.2 129.83 91.2 136.76 86.95 143.53C82.7 150.3 76 198.09 76 207.41Z" fill="#F8F8FA"/>
<path d="M84.3401 213.16H83.3401C83.4001 203.79 90.1301 155.68 94.4701 148.73C98.8101 141.78 115.65 134.85 116.36 134.56L116.73 135.49C116.56 135.56 99.5601 142.49 95.3101 149.26C91.0601 156.03 84.4001 203.84 84.3401 213.16Z" fill="#F8F8FA"/>
<path d="M93.7 218.06H92.7C92.76 208.69 99.49 160.58 103.83 153.63C108.17 146.68 125.01 139.75 125.72 139.46L126.09 140.39C125.92 140.46 108.92 147.39 104.67 154.16C100.42 160.93 93.76 208.74 93.7 218.06Z" fill="#F8F8FA"/>
<path d="M104.45 223.56H103.45C103.51 214.19 110.24 166.08 114.58 159.13C118.92 152.18 135.76 145.25 136.47 144.96L136.84 145.89C136.67 145.96 119.67 152.89 115.42 159.66C111.17 166.43 104.52 214.24 104.45 223.56Z" fill="#F8F8FA"/>
<path d="M114.07 230H113.07C113.13 220.63 119.86 172.52 124.2 165.57C128.54 158.62 145.38 151.69 146.09 151.4L146.46 152.33C146.29 152.4 129.29 159.33 125.04 166.1C120.79 172.87 114.13 220.72 114.07 230Z" fill="#F8F8FA"/>
<path d="M124.85 236.08H123.85C123.91 226.71 130.64 178.6 134.98 171.65C139.32 164.7 156.16 157.77 156.87 157.48L157.24 158.41C157.07 158.48 140.07 165.41 135.82 172.18C131.57 178.95 124.91 226.77 124.85 236.08Z" fill="#F8F8FA"/>
<path d="M137.16 243.43H136.16C136.22 234.06 142.95 185.95 147.29 179C151.63 172.05 168.47 165.12 169.18 164.83L169.55 165.76C169.38 165.83 152.38 172.76 148.13 179.53C143.88 186.3 137.23 234.11 137.16 243.43Z" fill="#F8F8FA"/>
<path d="M144.56 249.64H143.56C143.62 240.27 150.35 192.16 154.69 185.21C159.03 178.26 175.87 171.33 176.58 171.04L176.95 171.97C176.78 172.04 159.78 178.97 155.53 185.74C151.28 192.51 144.62 240.32 144.56 249.64Z" fill="#F8F8FA"/>
<path d="M154.6 255.46H153.6C153.66 246.09 160.39 197.98 164.73 191.03C169.07 184.08 185.91 177.15 186.62 176.86L186.99 177.79C186.82 177.86 169.82 184.79 165.57 191.56C161.32 198.33 154.67 246.15 154.6 255.46Z" fill="#F8F8FA"/>
<path d="M165.36 261H164.36C164.42 251.63 171.15 203.52 175.49 196.57C179.83 189.62 196.67 182.69 197.38 182.4L197.75 183.33C197.58 183.4 180.58 190.33 176.33 197.1C172.08 203.87 165.42 251.64 165.36 261Z" fill="#F8F8FA"/>
<path d="M209.268 213.683L181.741 226.748L182.17 227.651L209.697 214.587L209.268 213.683Z" fill="#F8F8FA"/>
<g opacity="0.15">
<path opacity="0.15" d="M80.3201 115L166.48 165.94L206.62 189.67C206.99 189.89 207.76 190.57 208.18 190.59C209.5 190.67 207.32 192.27 207.98 189.67C207.5 191.56 207.98 194.17 207.98 196.1V241.91C207.98 244.39 207.53 247.37 207.98 249.82C207.81 248.91 209.46 248.98 207.68 249.36C206.14 249.68 204.33 251.17 202.94 251.92L188.89 259.51C185.13 261.51 180.96 263.31 177.42 265.7C175.42 267.02 176.66 265.59 177.48 266.43C177.24 266.18 176.8 266.13 176.55 265.89C173.17 262.76 167.47 260.68 163.5 258.4L59.3001 198.64L52.0701 194.49C51.1801 193.98 49.3401 192.39 48.2801 192.32C47.3801 192.26 48.5901 193.43 48.7301 193.22C49.1301 192.58 49.0001 190.98 49.0801 190.22L50.5601 177.71L54.2401 146.71C54.4701 144.76 54.7501 142.81 54.9201 140.85C55.6001 132.76 60.9201 127.98 67.3901 123.56C72.0098 120.392 76.8336 117.532 81.8301 115C83.5501 114.13 82.0401 111.54 80.3201 112.41C70.8301 117.23 57.5701 123.78 53.2601 134.16C51.5501 138.27 51.6201 143.64 51.0901 148.05L45.7001 193.43C45.6959 193.693 45.7623 193.953 45.8924 194.181C46.0226 194.41 46.2117 194.599 46.4401 194.73L109.93 231.15L154.62 256.79L169.51 265.33C171.35 266.39 173.86 268.55 175.96 269.03C177.49 269.38 178.41 268.58 179.79 267.84L190.79 261.84L210.19 251.36C210.416 251.227 210.604 251.037 210.734 250.809C210.864 250.581 210.931 250.322 210.93 250.06V193C210.93 191.79 211.31 189.82 210.61 188.74C209.5 187.02 205.76 185.74 204.09 184.74L111.61 130L81.8301 112.41C81.4877 112.227 81.0875 112.183 80.7138 112.289C80.34 112.395 80.0219 112.641 79.8262 112.977C79.6306 113.312 79.5727 113.711 79.6649 114.088C79.757 114.465 79.9919 114.792 80.3201 115V115Z" fill="#56403D"/>
<path opacity="0.15" d="M79.5701 113.7V168.12C79.5701 169.57 78.8401 173.54 79.5701 174.83C80.1501 175.83 79.5101 174.41 80.1201 174.26C79.2472 174.607 78.4155 175.05 77.6401 175.58L66.8601 181.3L46.4401 192.13C44.7301 193.03 46.2501 195.63 47.9501 194.72L81.8201 176.72C82.0471 176.588 82.2351 176.398 82.3651 176.17C82.4951 175.941 82.5623 175.683 82.5601 175.42V113.7C82.5601 113.302 82.4021 112.921 82.1208 112.639C81.8395 112.358 81.458 112.2 81.0601 112.2C80.6623 112.2 80.2808 112.358 79.9995 112.639C79.7182 112.921 79.5601 113.302 79.5601 113.7H79.5701Z" fill="#56403D"/>
<path opacity="0.15" d="M209.08 188.18C201.95 191.08 194 194.69 188.58 200.29C184.29 204.72 183.44 211.75 182.25 217.54C178.9 233.78 175.53 251.13 175.25 267.77C175.25 268.168 175.408 268.549 175.69 268.831C175.971 269.112 176.352 269.27 176.75 269.27C177.148 269.27 177.53 269.112 177.811 268.831C178.092 268.549 178.25 268.168 178.25 267.77C178.49 252.36 181.6 236.47 184.52 221.38C185.61 215.77 186.21 207.75 190 203.16C194.71 197.45 203.13 193.81 209.87 191.08C211.64 190.36 210.87 187.46 209.07 188.19L209.08 188.18Z" fill="#56403D"/>
<path opacity="0.15" d="M200.35 255.3H199.35V195.88L72.2202 120.95V180.43H71.2202V119.2L200.35 195.31V255.3Z" fill="#56403D"/>
<path opacity="0.15" d="M189.91 260.94H188.91V201.88L61.1702 127.63V185.6H60.1702V125.9L189.91 201.3V260.94Z" fill="#56403D"/>
<path opacity="0.15" d="M184.51 214.7L184.27 214.57L53.3201 138.86L53.8201 137.99L184.53 213.56L209.25 200.67L209.71 201.55L184.51 214.7Z" fill="#56403D"/>
<path opacity="0.15" d="M182.45 264.97H181.45V227.49L51.6802 154L52.1802 153.13L182.45 226.91V264.97Z" fill="#56403D"/>
<path opacity="0.15" d="M179.77 241.22L50.1602 166.82L50.6602 165.95L179.83 240.09L209.27 226.74L209.69 227.66L179.77 241.22Z" fill="#56403D"/>
<path opacity="0.15" d="M178.03 254.27L177.8 254.14L48.5901 180.1L49.0801 179.23L178.07 253.15L209.26 238.17L209.7 239.07L178.03 254.27Z" fill="#56403D"/>
<path opacity="0.15" d="M55.8601 197H54.8601C54.9201 187.63 61.6501 139.52 65.9901 132.57C70.3301 125.62 87.1701 118.69 87.8801 118.4L88.2501 119.33C88.0801 119.4 71.0801 126.33 66.8301 133.1C62.5801 139.87 55.9301 187.7 55.8601 197Z" fill="#56403D"/>
<path opacity="0.15" d="M65.2202 201.91H64.2202C64.2802 192.54 71.0102 144.43 75.3502 137.48C79.6902 130.53 96.5302 123.6 97.2402 123.31L97.6102 124.24C97.4402 124.31 80.4402 131.24 76.1902 138.01C71.9402 144.78 65.2802 192.6 65.2202 201.91Z" fill="#56403D"/>
<path opacity="0.15" d="M76.0002 207.41H75.0002C75.0002 198 81.7602 149.92 86.1102 143C90.4602 136.08 107.29 129.12 108 128.83L108.37 129.76C108.2 129.83 91.2002 136.76 86.9502 143.53C82.7002 150.3 76.0002 198.09 76.0002 207.41Z" fill="#56403D"/>
<path opacity="0.15" d="M84.3401 213.16H83.3401C83.4001 203.79 90.1301 155.68 94.4701 148.73C98.8101 141.78 115.65 134.85 116.36 134.56L116.73 135.49C116.56 135.56 99.5601 142.49 95.3101 149.26C91.0601 156.03 84.4001 203.84 84.3401 213.16Z" fill="#56403D"/>
<path opacity="0.15" d="M93.7002 218.06H92.7002C92.7602 208.69 99.4902 160.58 103.83 153.63C108.17 146.68 125.01 139.75 125.72 139.46L126.09 140.39C125.92 140.46 108.92 147.39 104.67 154.16C100.42 160.93 93.7602 208.74 93.7002 218.06Z" fill="#56403D"/>
<path opacity="0.15" d="M104.45 223.56H103.45C103.51 214.19 110.24 166.08 114.58 159.13C118.92 152.18 135.76 145.25 136.47 144.96L136.84 145.89C136.67 145.96 119.67 152.89 115.42 159.66C111.17 166.43 104.52 214.24 104.45 223.56Z" fill="#56403D"/>
<path opacity="0.15" d="M114.07 230H113.07C113.13 220.63 119.86 172.52 124.2 165.57C128.54 158.62 145.38 151.69 146.09 151.4L146.46 152.33C146.29 152.4 129.29 159.33 125.04 166.1C120.79 172.87 114.13 220.72 114.07 230Z" fill="#56403D"/>
<path opacity="0.15" d="M124.85 236.08H123.85C123.91 226.71 130.64 178.6 134.98 171.65C139.32 164.7 156.16 157.77 156.87 157.48L157.24 158.41C157.07 158.48 140.07 165.41 135.82 172.18C131.57 178.95 124.91 226.77 124.85 236.08Z" fill="#56403D"/>
<path opacity="0.15" d="M137.16 243.43H136.16C136.22 234.06 142.95 185.95 147.29 179C151.63 172.05 168.47 165.12 169.18 164.83L169.55 165.76C169.38 165.83 152.38 172.76 148.13 179.53C143.88 186.3 137.23 234.11 137.16 243.43Z" fill="#56403D"/>
<path opacity="0.15" d="M144.56 249.64H143.56C143.62 240.27 150.35 192.16 154.69 185.21C159.03 178.26 175.87 171.33 176.58 171.04L176.95 171.97C176.78 172.04 159.78 178.97 155.53 185.74C151.28 192.51 144.62 240.32 144.56 249.64Z" fill="#56403D"/>
<path opacity="0.15" d="M154.6 255.46H153.6C153.66 246.09 160.39 197.98 164.73 191.03C169.07 184.08 185.91 177.15 186.62 176.86L186.99 177.79C186.82 177.86 169.82 184.79 165.57 191.56C161.32 198.33 154.67 246.15 154.6 255.46Z" fill="#56403D"/>
<path opacity="0.15" d="M165.36 261H164.36C164.42 251.63 171.15 203.52 175.49 196.57C179.83 189.62 196.67 182.69 197.38 182.4L197.75 183.33C197.58 183.4 180.58 190.33 176.33 197.1C172.08 203.87 165.42 251.64 165.36 261Z" fill="#56403D"/>
<path opacity="0.15" d="M209.268 213.683L181.741 226.748L182.17 227.651L209.697 214.587L209.268 213.683Z" fill="#56403D"/>
</g>
<path style="mix-blend-mode:multiply" d="M230.22 146.82L188.22 165.21C188.22 165.21 175.26 181 200 184.59L270.09 144.72C256.765 144.309 243.428 145.011 230.22 146.82V146.82Z" fill="url(#paint0_linear_319:12317)"/>
<path d="M260.49 134.21L245.67 133.01L251.19 127.66L268.6 127.8" fill="#1045FF"/>
<path d="M263.88 127.81C263.88 127.81 264.05 131.34 262.67 131.81C261.29 132.28 257.82 132.48 260.07 133.99C262.32 135.5 263.89 134.66 263.89 134.66C264.496 135.263 264.914 136.03 265.091 136.866C265.269 137.703 265.199 138.573 264.89 139.37C264.288 141.15 264.392 143.094 265.18 144.8C267.18 145.8 268.01 145.42 269.18 142.9C270.35 140.38 271.78 128.11 271.26 127.78C270.74 127.45 263.88 127.81 263.88 127.81Z" fill="#070928"/>
<path d="M266.63 145.31C267.129 145.522 267.675 145.6 268.213 145.537C268.751 145.474 269.264 145.271 269.7 144.95C271.03 143.82 271.23 138.14 272.44 136.07C273.65 134 274.52 127.45 271.32 127.81" fill="#010005"/>
<path d="M235.82 119.9C235.82 119.9 227.82 140.21 240.47 134.9C253.12 129.59 263.83 119.9 263.83 119.9H235.82Z" fill="#FF9E8B"/>
<path d="M237.61 86.2C237.61 86.2 232.31 94.28 230.32 94.99C227.569 96.2345 224.897 97.6472 222.32 99.22C221.78 99.57 216.88 101.16 216.15 103.44C215.42 105.72 214.7 109.59 216.15 110.3C217.6 111.01 216.05 106.96 218 105.38C219.95 103.8 218 107.14 219.59 107.32C221.18 107.5 222.31 103.1 223.4 102.75C227.42 101.518 231.358 100.032 235.19 98.3C239.36 96.24 245.11 89.91 245.11 89.91" fill="#F8C8B2"/>
<path d="M277.93 84.27C278.98 84.78 286.37 89.88 288.3 92.1C290.23 94.32 293.93 102.5 294.3 104.55C294.67 106.6 295.88 112.74 294.3 113.55C292.72 114.36 291.49 116.79 290.61 115.94C289.73 115.09 292.54 112.02 292.02 110.48C291.5 108.94 290.97 112.2 289.91 112.36C288.85 112.52 291.14 106.55 290.61 105.87C290.08 105.19 282.85 95 277.93 92.61" fill="#F8C8B2"/>
<path d="M252.08 114.77C250.83 115.93 240.86 130.77 237.08 141.03C233.3 151.29 229.34 156.27 229.34 156.27C229.34 156.27 231.82 166.27 233.66 164.13C235.5 161.99 242.66 151.13 249.25 137.37C249.25 137.37 260.19 131.22 266.09 123.42" fill="#F8C8B2"/>
<path d="M246.61 102.17C246.61 102.17 232.43 122.03 233.41 123.71C234.39 125.39 240.48 128.47 241.76 128.47C243.04 128.47 246.76 119.8 251.7 120.36C256.64 120.92 259.98 128.47 259.01 130.15C259.01 130.15 265.01 127.91 267.01 123.44C269.01 118.97 267.01 108.61 267.01 108.61" fill="white"/>
<path d="M246.61 102.17C246.61 102.17 232.43 122.03 233.41 123.71C234.39 125.39 240.48 128.47 241.76 128.47C243.04 128.47 246.76 119.8 251.7 120.36C256.64 120.92 259.98 128.47 259.01 130.15C259.01 130.15 265.01 127.91 267.01 123.44C269.01 118.97 267.01 108.61 267.01 108.61" stroke="#F2F2F2" stroke-miterlimit="10"/>
<path d="M253.43 75.87C252.58 76.02 248.49 71.95 235.82 86.78L240.47 94.05L246.61 89.85C246.61 89.85 247.61 96.56 246.61 98.52C245.61 100.48 242.47 104.67 243.05 106.07C243.63 107.47 251.8 114.46 257.81 114.74C263.82 115.02 267.81 110.82 272.15 111.66C272.15 111.66 267.85 106.35 267.85 102.43C267.85 98.51 267.27 91.52 267.27 91.52C267.27 91.52 274.48 92.74 277.08 95.07L282.2 85.65C282.2 85.65 268.14 73.35 253.43 75.87Z" fill="#1045FF"/>
<path d="M237.77 139.56H237.7C237.49 140.07 237.3 140.56 237.12 141.07C233.38 151.35 229.38 156.31 229.38 156.31C229.38 156.31 231.38 167.2 233.17 165.08C234.77 163.24 241.17 153.59 246.73 142.61C243.66 141.857 240.662 140.836 237.77 139.56V139.56Z" fill="#1045FF"/>
<path d="M229.15 168.66C230.443 168.006 231.583 167.087 232.498 165.964C233.413 164.841 234.081 163.538 234.46 162.14C235.75 157.38 233.71 150.23 231.17 148.03C228.63 145.83 221.79 146.25 222 152.13" fill="#070928"/>
<path d="M224.74 167.94C223.957 166.374 223.612 164.626 223.74 162.88C224.01 160.2 218.74 153.38 222.14 149.65C224.8 146.76 228.69 147.93 230.82 152.48C232.95 157.03 233.12 167.33 229.2 168.67C225.28 170.01 224.74 167.94 224.74 167.94Z" fill="#010005"/>
<path d="M263.31 65.93V65.83C263.272 65.1441 263.059 64.4794 262.69 63.9C261.64 62.48 258.91 61.99 257.25 61.77C255.144 61.4491 252.99 61.7588 251.06 62.66C248.91 63.72 249.2 65.83 249.75 67.66C250.15 69.02 250.55 70.38 250.93 71.74L258.53 77.18C258.53 77.18 262.16 75.42 262.68 74C263.497 71.3921 263.712 68.6331 263.31 65.93V65.93Z" fill="#121605"/>
<path d="M250.69 68.76C250.69 69.31 250.31 78.91 255.26 79.28C260.21 79.65 261 73.8 261 73.8C261 73.8 263.48 71.23 262.43 70.55C262.107 70.3717 261.732 70.3092 261.368 70.3728C261.005 70.4365 260.674 70.6225 260.43 70.9C260.43 70.9 257.56 74.33 258.17 72.24C258.78 70.15 258.67 67.09 256.17 67.46C253.67 67.83 253.58 69.01 252.17 68.09C250.76 67.17 250.65 67.39 250.69 68.76Z" fill="#F8CDBC"/>
<path d="M188.32 135L188.14 134.95L189.51 130.76C187.15 132.786 185.625 135.615 185.23 138.7L185.32 138.8C186.228 137.463 187.231 136.193 188.32 135V135Z" fill="white"/>
<path d="M190.64 146L190.7 145.91C189.385 145.761 188.092 145.456 186.85 145V146.33C186.737 146.228 186.637 146.114 186.55 145.99C187.357 147.513 188.458 148.861 189.79 149.954C191.123 151.048 192.659 151.866 194.31 152.36C194.403 151.587 194.473 150.813 194.52 150.04L190.64 146Z" fill="white"/>
<path d="M197.6 127.58C194.681 127.71 191.887 128.8 189.65 130.68L194.81 129.13C195.702 128.548 196.635 128.03 197.6 127.58V127.58Z" fill="white"/>
<path d="M206.5 131.69L209.63 135.62L210.63 136.2C209.667 133.485 207.818 131.174 205.38 129.64C205.754 130.313 206.088 131.008 206.38 131.72L206.5 131.69Z" fill="white"/>
<path d="M204.07 149.9C202.595 149.654 201.135 149.32 199.7 148.9L194.92 150.1C194.867 150.893 194.793 151.687 194.7 152.48C197.689 153.294 200.867 153.054 203.7 151.8H203.45L204.07 149.9Z" fill="white"/>
<path d="M196.95 131.69L196.88 131.76C198.927 132.36 200.957 133.01 202.97 133.71V133.63L206.1 131.92C205.715 130.989 205.257 130.089 204.73 129.23C202.849 128.195 200.746 127.629 198.6 127.58C197.519 128.03 196.476 128.565 195.48 129.18L196.95 131.69Z" fill="white"/>
<path d="M188.74 135.17C187.593 136.421 186.543 137.759 185.6 139.17L185.69 139.28L186.86 144.4V144.68C188.177 145.193 189.555 145.529 190.96 145.68L193.33 142.31C192.699 140.327 192.24 138.292 191.96 136.23L188.74 135.17Z" fill="white"/>
<path d="M204.24 139.67C202.72 141.09 201.143 142.447 199.51 143.74L200.04 143.92V148.64C201.404 149.023 202.79 149.323 204.19 149.54L204.34 149.06L208.24 145.63C208.477 144.018 208.574 142.389 208.53 140.76L204.24 139.67Z" fill="white"/>
<path d="M203 134.14C200.853 133.393 198.69 132.7 196.51 132.06L192.3 136.14C192.564 138.065 192.985 139.964 193.56 141.82V141.77L198.99 143.58C200.723 142.247 202.39 140.813 203.99 139.28L203 134.14Z" fill="white"/>
<path d="M208.92 140.2C208.997 141.893 208.924 143.59 208.7 145.27H210.31C211.492 142.583 211.68 139.563 210.84 136.75L210.02 136.28L208.92 140.2Z" fill="white"/>
<path d="M189.54 130.72V130.8L189.68 130.68L189.54 130.72Z" fill="#050505"/>
<path d="M209.63 135.62L206.5 131.69H206.43C206.138 130.978 205.804 130.283 205.43 129.61L204.73 129.19C205.257 130.049 205.715 130.949 206.1 131.88L202.97 133.59V133.67C200.97 133.003 198.94 132.353 196.88 131.72L196.95 131.65L195.47 129.14C196.466 128.525 197.509 127.99 198.59 127.54H198.25H197.61C196.644 127.99 195.712 128.508 194.82 129.09L189.66 130.64L189.52 130.76L188.14 135L188.32 135.05C187.231 136.24 186.228 137.507 185.32 138.84L185.23 138.74C184.909 141.256 185.373 143.809 186.56 146.05C186.647 146.174 186.747 146.288 186.86 146.39V145.06C188.102 145.516 189.395 145.821 190.71 145.97L190.65 146.06L194.54 150.12C194.487 150.893 194.417 151.667 194.33 152.44L194.71 152.55C194.803 151.757 194.877 150.963 194.93 150.17L199.71 148.97C201.146 149.39 202.605 149.724 204.08 149.97L203.45 151.97H203.7C206.641 150.67 208.996 148.325 210.31 145.39H208.7C208.924 143.71 208.997 142.013 208.92 140.32L210.01 136.4L210.83 136.87C210.777 136.683 210.717 136.5 210.65 136.32L209.63 135.62ZM191 145.6C189.595 145.449 188.217 145.113 186.9 144.6V144.32L185.73 139.2L185.64 139.09C186.583 137.679 187.633 136.341 188.78 135.09L192 136.09C192.28 138.152 192.738 140.187 193.37 142.17L191 145.6ZM193.69 141.78V141.83C193.115 139.974 192.694 138.075 192.43 136.15L196.64 132.07C198.82 132.737 200.983 133.43 203.13 134.15L204.13 139.3C202.53 140.8 200.863 142.233 199.13 143.6L193.69 141.78ZM208.29 145.63L204.39 149.06L204.24 149.54C202.84 149.323 201.454 149.023 200.09 148.64V143.92L199.56 143.74C201.193 142.447 202.77 141.09 204.29 139.67L208.58 140.76C208.608 142.39 208.494 144.02 208.24 145.63H208.29Z" fill="#1045FF"/>
<defs>
<linearGradient id="paint0_linear_319:12317" x1="265.43" y1="139.91" x2="205.13" y2="169.49" gradientUnits="userSpaceOnUse">
<stop stop-color="#22B573"/>
<stop offset="1" stop-color="white"/>
</linearGradient>
</defs>
</svg>
