<svg width="40" height="40" fill="none" xmlns="http://www.w3.org/2000/svg">
<path fill-rule="evenodd" clip-rule="evenodd" d="M12.5417 27.651C21.2493 32.678 29.0941 32.5759 34.0417 29.7197C38.9892 26.8635 39.166 22.3347 30.4583 17.3077C21.7506 12.2808 13.9059 12.3829 8.95833 15.2391C4.01078 18.0953 3.83397 22.6241 12.5417 27.651ZM16.9446 25.1098C21.4228 27.6951 25.4573 27.6426 28.0017 26.1737C30.5462 24.7048 30.6371 22.3757 26.1589 19.7904C21.6806 17.2051 17.6462 17.2576 15.1017 18.7265C12.5573 20.1954 12.4663 22.5245 16.9446 25.1098Z" fill="#33B0FF"/>
<path fill-rule="evenodd" clip-rule="evenodd" d="M12.5417 25.1173C21.2493 30.1442 29.0941 30.0422 34.0417 27.1859C38.9892 24.3297 39.166 19.8009 30.4583 14.774C21.7506 9.74705 13.9059 9.84912 8.95833 12.7053C4.01078 15.5616 3.83397 20.0903 12.5417 25.1173ZM16.9446 22.5758C21.4228 25.1611 25.4573 25.1086 28.0017 23.6397C30.5462 22.1707 30.6371 19.8417 26.1589 17.2564C21.6806 14.6711 17.6462 14.7236 15.1017 16.1925C12.5573 17.6614 12.4663 19.9905 16.9446 22.5758Z" fill="#217DFF"/>
<path fill-rule="evenodd" clip-rule="evenodd" d="M12.5417 22.5836C21.2493 27.6105 29.0941 27.5085 34.0417 24.6523C38.9892 21.796 39.166 17.2673 30.4583 12.2403C21.7506 7.21335 13.9059 7.31543 8.95833 10.1716C4.01078 13.0279 3.83397 17.5567 12.5417 22.5836ZM16.9446 20.0419C21.4228 22.6272 25.4573 22.5747 28.0017 21.1058C30.5462 19.6368 30.6371 17.3078 26.1589 14.7225C21.6806 12.1372 17.6462 12.1897 15.1017 13.6586C12.5573 15.1275 12.4663 17.4566 16.9446 20.0419Z" fill="#1045FF"/>
</svg>
