<svg width="189" height="40" viewBox="0 0 189 40" fill="none" xmlns="http://www.w3.org/2000/svg">
<path d="M57.048 14.888V13H61.176V29H57.048V27.112C55.8107 28.6693 54.072 29.448 51.832 29.448C49.6987 29.448 47.864 28.6373 46.328 27.016C44.8133 25.3733 44.056 23.368 44.056 21C44.056 18.6533 44.8133 16.6587 46.328 15.016C47.864 13.3733 49.6987 12.552 51.832 12.552C54.072 12.552 55.8107 13.3307 57.048 14.888ZM49.432 24.264C50.264 25.096 51.32 25.512 52.6 25.512C53.88 25.512 54.936 25.096 55.768 24.264C56.6213 23.4107 57.048 22.3227 57.048 21C57.048 19.6773 56.6213 18.6 55.768 17.768C54.936 16.9147 53.88 16.488 52.6 16.488C51.32 16.488 50.264 16.9147 49.432 17.768C48.6 18.6 48.184 19.6773 48.184 21C48.184 22.3227 48.6 23.4107 49.432 24.264ZM69.0473 13V15.752C69.4099 14.7493 70.0286 13.992 70.9033 13.48C71.7779 12.9467 72.7806 12.68 73.9113 12.68V17.288C72.6526 17.1173 71.5219 17.3733 70.5193 18.056C69.5379 18.7173 69.0473 19.816 69.0473 21.352V29H64.9193V13H69.0473ZM91.2838 22.696H79.2198C79.7531 24.7013 81.2571 25.704 83.7318 25.704C85.3104 25.704 86.5051 25.1707 87.3158 24.104L90.6438 26.024C89.0651 28.3067 86.7398 29.448 83.6678 29.448C81.0224 29.448 78.8998 28.648 77.2998 27.048C75.6998 25.448 74.8997 23.432 74.8997 21C74.8997 18.6107 75.6891 16.6053 77.2678 14.984C78.8251 13.3627 80.8518 12.552 83.3478 12.552C85.7158 12.552 87.6464 13.3627 89.1398 14.984C90.6758 16.6053 91.4438 18.6107 91.4438 21C91.4438 21.448 91.3904 22.0133 91.2838 22.696ZM79.1558 19.496H87.3158C87.0811 18.4507 86.6011 17.6507 85.8758 17.096C85.1718 16.5413 84.3291 16.264 83.3478 16.264C82.2384 16.264 81.3211 16.552 80.5958 17.128C79.8704 17.6827 79.3904 18.472 79.1558 19.496ZM103.222 12.552C104.992 12.552 106.432 13.1387 107.542 14.312C108.694 15.5067 109.27 17.128 109.27 19.176V29H105.142V19.688C105.142 18.6427 104.854 17.832 104.278 17.256C103.723 16.68 102.955 16.392 101.974 16.392C100.886 16.392 100.022 16.7333 99.3815 17.416C98.7628 18.0773 98.4535 19.0587 98.4535 20.36V29H94.3255V13H98.4535V14.792C99.4348 13.2987 101.024 12.552 103.222 12.552ZM124.954 14.888V13H129.082V29H124.954V27.112C123.717 28.6693 121.978 29.448 119.738 29.448C117.605 29.448 115.77 28.6373 114.234 27.016C112.72 25.3733 111.962 23.368 111.962 21C111.962 18.6533 112.72 16.6587 114.234 15.016C115.77 13.3733 117.605 12.552 119.738 12.552C121.978 12.552 123.717 13.3307 124.954 14.888ZM117.338 24.264C118.17 25.096 119.226 25.512 120.506 25.512C121.786 25.512 122.842 25.096 123.674 24.264C124.528 23.4107 124.954 22.3227 124.954 21C124.954 19.6773 124.528 18.6 123.674 17.768C122.842 16.9147 121.786 16.488 120.506 16.488C119.226 16.488 118.17 16.9147 117.338 17.768C116.506 18.6 116.09 19.6773 116.09 21C116.09 22.3227 116.506 23.4107 117.338 24.264Z" fill="#1045FF"/>
<path d="M141.978 13V16.968H138.362V23.624C138.362 24.1787 138.5 24.584 138.778 24.84C139.055 25.096 139.46 25.2453 139.994 25.288C140.527 25.3093 141.188 25.2987 141.978 25.256V29C139.183 29.32 137.188 29.064 135.994 28.232C134.82 27.3787 134.234 25.8427 134.234 23.624V16.968H131.45V13H134.234V9.768L138.362 8.52V13H141.978ZM146.936 11.08C146.253 11.08 145.656 10.8347 145.144 10.344C144.653 9.832 144.408 9.23466 144.408 8.552C144.408 7.86933 144.653 7.272 145.144 6.76C145.656 6.248 146.253 5.992 146.936 5.992C147.64 5.992 148.237 6.248 148.728 6.76C149.24 7.272 149.496 7.86933 149.496 8.552C149.496 9.23466 149.24 9.832 148.728 10.344C148.237 10.8347 147.64 11.08 146.936 11.08ZM149.016 29H144.888V13H149.016V29ZM166.426 27.016C164.805 28.6373 162.8 29.448 160.41 29.448C158.021 29.448 156.016 28.6373 154.394 27.016C152.773 25.3947 151.962 23.3893 151.962 21C151.962 18.632 152.773 16.6373 154.394 15.016C156.037 13.3733 158.042 12.552 160.41 12.552C162.778 12.552 164.784 13.3733 166.426 15.016C168.069 16.6587 168.89 18.6533 168.89 21C168.89 23.368 168.069 25.3733 166.426 27.016ZM157.306 24.168C158.138 25 159.173 25.416 160.41 25.416C161.648 25.416 162.682 25 163.514 24.168C164.346 23.336 164.762 22.28 164.762 21C164.762 19.72 164.346 18.664 163.514 17.832C162.682 17 161.648 16.584 160.41 16.584C159.173 16.584 158.138 17 157.306 17.832C156.496 18.6853 156.09 19.7413 156.09 21C156.09 22.2587 156.496 23.3147 157.306 24.168ZM180.69 12.552C182.461 12.552 183.901 13.1387 185.01 14.312C186.162 15.5067 186.738 17.128 186.738 19.176V29H182.61V19.688C182.61 18.6427 182.322 17.832 181.746 17.256C181.192 16.68 180.424 16.392 179.442 16.392C178.354 16.392 177.49 16.7333 176.85 17.416C176.232 18.0773 175.922 19.0587 175.922 20.36V29H171.794V13H175.922V14.792C176.904 13.2987 178.493 12.552 180.69 12.552Z" fill="black"/>
<path fill-rule="evenodd" clip-rule="evenodd" d="M12.5417 27.651C21.2493 32.678 29.0941 32.5759 34.0417 29.7197C38.9892 26.8635 39.166 22.3347 30.4583 17.3077C21.7506 12.2808 13.9059 12.3829 8.95833 15.2391C4.01078 18.0953 3.83397 22.6241 12.5417 27.651ZM16.9446 25.1098C21.4228 27.6951 25.4573 27.6426 28.0017 26.1737C30.5462 24.7048 30.6371 22.3757 26.1589 19.7904C21.6806 17.2051 17.6462 17.2576 15.1017 18.7265C12.5573 20.1954 12.4663 22.5245 16.9446 25.1098Z" fill="#33B0FF"/>
<path fill-rule="evenodd" clip-rule="evenodd" d="M12.5417 25.1173C21.2493 30.1442 29.0941 30.0422 34.0417 27.1859C38.9892 24.3297 39.166 19.8009 30.4583 14.774C21.7506 9.74705 13.9059 9.84912 8.95833 12.7053C4.01078 15.5616 3.83397 20.0903 12.5417 25.1173ZM16.9446 22.5758C21.4228 25.1611 25.4573 25.1086 28.0017 23.6397C30.5462 22.1707 30.6371 19.8417 26.1589 17.2564C21.6806 14.6711 17.6462 14.7236 15.1017 16.1925C12.5573 17.6614 12.4663 19.9905 16.9446 22.5758Z" fill="#217DFF"/>
<path fill-rule="evenodd" clip-rule="evenodd" d="M12.5417 22.5836C21.2493 27.6105 29.0941 27.5085 34.0417 24.6523C38.9892 21.796 39.166 17.2673 30.4583 12.2403C21.7506 7.21335 13.9059 7.31543 8.95833 10.1716C4.01078 13.0279 3.83397 17.5567 12.5417 22.5836ZM16.9446 20.0419C21.4228 22.6272 25.4573 22.5747 28.0017 21.1058C30.5462 19.6368 30.6371 17.3078 26.1589 14.7225C21.6806 12.1372 17.6462 12.1897 15.1017 13.6586C12.5573 15.1275 12.4663 17.4566 16.9446 20.0419Z" fill="#1045FF"/>
</svg>
